M48
;Layer_Color=9474304
;FILE_FORMAT=2:5
INCH,TZ
;TYPE=PLATED
T1F00S00C0.00787
T2F00S00C0.01181
T3F00S00C0.01618
T4F00S00C0.02800
T5F00S00C0.03543
%
T01
X56102Y51181
Y55118
X60039
Y51181
Y59055
X56102
Y62992
X60039
Y66929
X56102
T02
X70020Y68727
X101880Y85319
T03
X43307Y56102
X78942Y66155
X88583Y51181
X85630Y40354
X73079Y39370
X107283Y35453
X102362Y48228
T04
X23622Y54921
X30302Y62008
X29528Y76772
X51496Y42594
X57228Y22890
T05
X11516Y12000
Y22000
Y32000
Y42000
Y52000
Y62000
Y72000
Y82000
Y92000
Y102000
X119516Y102500
Y92500
Y82500
Y72500
Y62500
Y52500
Y42500
Y32500
Y22500
Y12500
M30
