G04*
G04 #@! TF.GenerationSoftware,Altium Limited,Altium Designer,18.1.7 (191)*
G04*
G04 Layer_Color=32768*
%FSLAX25Y25*%
%MOIN*%
G70*
G01*
G75*
%ADD10C,0.00394*%
%ADD50C,0.00197*%
D10*
X58071Y57087D02*
Y61024D01*
X56102Y59055D02*
X60039D01*
X35721Y55118D02*
X38083D01*
X36902Y53937D02*
Y56299D01*
X108169Y46487D02*
X110335D01*
X109252Y45404D02*
Y47570D01*
X92520Y68323D02*
Y70488D01*
X91437Y69406D02*
X93602D01*
X76673Y70968D02*
X78839D01*
X77756Y69885D02*
Y72051D01*
X73079Y42917D02*
Y45083D01*
X71996Y44000D02*
X74161D01*
X57134Y42800D02*
X59299D01*
X58217Y41717D02*
Y43883D01*
X98425Y54134D02*
X102362D01*
X100394Y52165D02*
Y56102D01*
X94488Y33484D02*
Y37421D01*
X92520Y35453D02*
X96457D01*
X83260Y69504D02*
X85425D01*
X84342Y68421D02*
Y70587D01*
X49453Y31895D02*
X53390D01*
X51421Y29926D02*
Y33863D01*
X37402Y65780D02*
Y69717D01*
X35433Y67748D02*
X39370D01*
X77362Y51181D02*
X81299D01*
X79331Y49213D02*
Y53150D01*
X90748Y43209D02*
Y45374D01*
X89665Y44291D02*
X91831D01*
D50*
X48799Y47047D02*
X67343D01*
X48799Y71063D02*
X67343D01*
Y47047D02*
Y71063D01*
X48799Y47047D02*
Y71063D01*
X39854Y53543D02*
Y56693D01*
X33949Y53543D02*
Y56693D01*
Y53543D02*
X39854D01*
X33949Y56693D02*
X39854D01*
X111221Y42747D02*
Y50227D01*
X107283Y42747D02*
Y50227D01*
X111221D01*
X107283Y42747D02*
X111221D01*
X90945Y66453D02*
X94095D01*
X90945Y72358D02*
X94095D01*
X90945Y66453D02*
Y72358D01*
X94095Y66453D02*
Y72358D01*
X74803Y69393D02*
Y72543D01*
X80709Y69393D02*
Y72543D01*
X74803D02*
X80709D01*
X74803Y69393D02*
X80709D01*
X71504Y46953D02*
X74654D01*
X71504Y41047D02*
X74654D01*
Y46953D01*
X71504Y41047D02*
Y46953D01*
X61169Y41225D02*
Y44375D01*
X55264Y41225D02*
Y44375D01*
Y41225D02*
X61169D01*
X55264Y44375D02*
X61169D01*
X94291Y47992D02*
Y60276D01*
X106496Y47992D02*
Y60276D01*
X94291D02*
X106496D01*
X94291Y47992D02*
X106496D01*
X85827Y38898D02*
X103150D01*
X85827Y32008D02*
Y38898D01*
X103150Y32008D02*
Y38898D01*
X85827Y32008D02*
X103150D01*
X82374Y65764D02*
Y73244D01*
X86311Y65764D02*
Y73244D01*
X82374Y65764D02*
X86311D01*
X82374Y73244D02*
X86311D01*
X40398Y24415D02*
Y39375D01*
X62445Y24415D02*
Y39375D01*
X40398D02*
X62445D01*
X40398Y24415D02*
X62445D01*
X33661Y59874D02*
X41142D01*
X33661Y75622D02*
X41142D01*
X33661Y59874D02*
Y75622D01*
X41142Y59874D02*
Y75622D01*
X71457Y47441D02*
Y54921D01*
X87205Y47441D02*
Y54921D01*
X71457D02*
X87205D01*
X71457Y47441D02*
X87205D01*
X87598Y45866D02*
X93898D01*
X87598Y42717D02*
X93898D01*
X87598D02*
Y45866D01*
X93898Y42717D02*
Y45866D01*
M02*
