G04*
G04 #@! TF.GenerationSoftware,Altium Limited,Altium Designer,18.1.7 (191)*
G04*
G04 Layer_Color=65535*
%FSLAX25Y25*%
%MOIN*%
G70*
G01*
G75*
%ADD10C,0.00394*%
%ADD11C,0.00984*%
%ADD12C,0.00787*%
%ADD13C,0.00500*%
%ADD14C,0.01000*%
%ADD15R,0.03347X0.06102*%
G36*
X98688Y98693D02*
X98680Y98752D01*
X98673Y98804D01*
Y98840D01*
X98665Y98863D01*
Y98870D01*
X98651Y98936D01*
X98629Y99003D01*
X98607Y99062D01*
X98585Y99106D01*
X98555Y99150D01*
X98540Y99180D01*
X98526Y99202D01*
X98518Y99209D01*
X98474Y99268D01*
X98422Y99320D01*
X98363Y99364D01*
X98304Y99401D01*
X98260Y99430D01*
X98216Y99460D01*
X98186Y99467D01*
X98179Y99474D01*
X98091Y99511D01*
X97988Y99533D01*
X97884Y99555D01*
X97781Y99563D01*
X97685Y99570D01*
X97612Y99577D01*
X98688D01*
Y98693D01*
D02*
G37*
G36*
X55802Y99570D02*
X55632Y99548D01*
X55485Y99526D01*
X55352Y99497D01*
X55242Y99460D01*
X55197Y99445D01*
X55160Y99437D01*
X55131Y99423D01*
X55109Y99415D01*
X55102Y99408D01*
X55094D01*
X54954Y99342D01*
X54821Y99261D01*
X54703Y99172D01*
X54600Y99091D01*
X54519Y99017D01*
X54453Y98958D01*
X54416Y98922D01*
X54409Y98914D01*
X54401Y98907D01*
X54298Y98782D01*
X54202Y98656D01*
X54129Y98531D01*
X54070Y98420D01*
X54018Y98317D01*
X53989Y98244D01*
X53974Y98214D01*
X53966Y98192D01*
X53959Y98185D01*
Y98177D01*
X53930Y98067D01*
X53908Y97964D01*
X53893Y97868D01*
X53885Y97779D01*
Y97610D01*
X53908Y97470D01*
X53922Y97411D01*
X53937Y97359D01*
X53952Y97315D01*
X53966Y97271D01*
X53981Y97241D01*
X53996Y97219D01*
X54003Y97212D01*
Y97204D01*
X54055Y97138D01*
X54106Y97079D01*
X54166Y97027D01*
X54232Y96983D01*
X54357Y96917D01*
X54482Y96873D01*
X54600Y96843D01*
X54652Y96836D01*
X54696Y96829D01*
X54733Y96821D01*
X54785D01*
X54888Y96829D01*
X54984Y96836D01*
X55072Y96851D01*
X55153Y96873D01*
X55219Y96887D01*
X55264Y96902D01*
X55300Y96910D01*
X55308Y96917D01*
X55404Y96961D01*
X55492Y97005D01*
X55581Y97057D01*
X55654Y97101D01*
X55728Y97145D01*
X55779Y97182D01*
X55809Y97212D01*
X55824Y97219D01*
X55772Y97101D01*
X55728Y96998D01*
X55684Y96902D01*
X55639Y96814D01*
X55595Y96733D01*
X55558Y96666D01*
X55529Y96600D01*
X55499Y96548D01*
X55470Y96504D01*
X55448Y96467D01*
X55404Y96408D01*
X55382Y96372D01*
X55374Y96364D01*
X55286Y96276D01*
X55190Y96209D01*
X55102Y96165D01*
X55028Y96136D01*
X54954Y96114D01*
X54902Y96106D01*
X54873Y96099D01*
X54858D01*
X54807Y96106D01*
X54762Y96114D01*
X54696Y96150D01*
X54652Y96180D01*
X54645Y96187D01*
X54637Y96195D01*
X54615Y96239D01*
X54600Y96290D01*
X54593Y96394D01*
Y96445D01*
Y96490D01*
X54600Y96519D01*
Y96526D01*
X53620Y96402D01*
X53443Y96379D01*
Y96261D01*
X53451Y96158D01*
X53465Y96069D01*
X53487Y95988D01*
X53502Y95929D01*
X53524Y95878D01*
X53532Y95848D01*
X53539Y95841D01*
X53583Y95767D01*
X53642Y95701D01*
X53694Y95642D01*
X53753Y95598D01*
X53804Y95561D01*
X53849Y95539D01*
X53878Y95524D01*
X53885Y95517D01*
X53989Y95480D01*
X54099Y95450D01*
X54224Y95436D01*
X54335Y95421D01*
X54445Y95414D01*
X54527Y95406D01*
X51070D01*
X51254Y95414D01*
X51424Y95428D01*
X51571Y95458D01*
X51704Y95487D01*
X51814Y95517D01*
X51859Y95531D01*
X51895Y95546D01*
X51925Y95553D01*
X51947Y95561D01*
X51955Y95568D01*
X51962D01*
X52109Y95642D01*
X52242Y95716D01*
X52360Y95804D01*
X52456Y95885D01*
X52544Y95959D01*
X52603Y96018D01*
X52640Y96055D01*
X52655Y96069D01*
X52758Y96195D01*
X52854Y96320D01*
X52927Y96445D01*
X52986Y96556D01*
X53038Y96659D01*
X53067Y96733D01*
X53082Y96762D01*
X53089Y96784D01*
X53097Y96792D01*
Y96799D01*
X53126Y96910D01*
X53156Y97013D01*
X53171Y97109D01*
Y97197D01*
Y97366D01*
X53148Y97507D01*
X53134Y97566D01*
X53119Y97617D01*
X53104Y97669D01*
X53089Y97706D01*
X53075Y97735D01*
X53060Y97757D01*
X53053Y97764D01*
Y97772D01*
X53001Y97838D01*
X52949Y97904D01*
X52890Y97956D01*
X52832Y98000D01*
X52699Y98067D01*
X52574Y98111D01*
X52456Y98140D01*
X52404Y98148D01*
X52360Y98155D01*
X52323Y98163D01*
X52271D01*
X52168Y98155D01*
X52072Y98148D01*
X51984Y98133D01*
X51903Y98111D01*
X51837Y98089D01*
X51785Y98074D01*
X51755Y98067D01*
X51741Y98059D01*
X51652Y98023D01*
X51556Y97971D01*
X51468Y97919D01*
X51394Y97875D01*
X51321Y97831D01*
X51269Y97794D01*
X51240Y97764D01*
X51225Y97757D01*
X51276Y97875D01*
X51321Y97978D01*
X51365Y98074D01*
X51409Y98163D01*
X51453Y98244D01*
X51490Y98310D01*
X51520Y98369D01*
X51549Y98428D01*
X51579Y98472D01*
X51601Y98509D01*
X51645Y98561D01*
X51667Y98597D01*
X51674Y98605D01*
X51770Y98700D01*
X51859Y98767D01*
X51947Y98818D01*
X52028Y98848D01*
X52102Y98870D01*
X52153Y98877D01*
X52183Y98885D01*
X52198D01*
X52249Y98877D01*
X52301Y98870D01*
X52338Y98855D01*
X52367Y98833D01*
X52404Y98796D01*
X52419Y98789D01*
Y98782D01*
X52441Y98737D01*
X52456Y98693D01*
X52463Y98583D01*
Y98538D01*
Y98494D01*
X52456Y98465D01*
Y98457D01*
X53443Y98570D01*
X53620Y98590D01*
Y98708D01*
X53605Y98818D01*
X53591Y98907D01*
X53569Y98988D01*
X53554Y99047D01*
X53532Y99098D01*
X53524Y99128D01*
X53517Y99135D01*
X53473Y99209D01*
X53443Y99242D01*
X53414Y99275D01*
X53355Y99334D01*
X53296Y99379D01*
X53244Y99415D01*
X53200Y99437D01*
X53171Y99452D01*
X53163Y99460D01*
X53067Y99497D01*
X52949Y99526D01*
X52832Y99548D01*
X52714Y99563D01*
X52610Y99570D01*
X52522Y99577D01*
X55986D01*
X55802Y99570D01*
D02*
G37*
G36*
X55861Y98870D02*
X55934Y98848D01*
X55993Y98818D01*
X56037Y98782D01*
X56074Y98745D01*
X56096Y98715D01*
X56111Y98693D01*
X56119Y98686D01*
X56148Y98612D01*
X56163Y98531D01*
Y98443D01*
X56155Y98361D01*
X56141Y98288D01*
X56126Y98229D01*
X56119Y98192D01*
X56111Y98185D01*
Y98177D01*
X56067Y98067D01*
X56015Y97964D01*
X55964Y97875D01*
X55905Y97809D01*
X55861Y97757D01*
X55824Y97713D01*
X55794Y97691D01*
X55787Y97683D01*
X55706Y97624D01*
X55625Y97588D01*
X55551Y97558D01*
X55485Y97536D01*
X55426Y97521D01*
X55374Y97514D01*
X55337D01*
X55256Y97521D01*
X55190Y97543D01*
X55131Y97573D01*
X55087Y97602D01*
X55057Y97632D01*
X55035Y97661D01*
X55020Y97683D01*
X55013Y97691D01*
X54991Y97764D01*
X54984Y97846D01*
Y97934D01*
X54998Y98015D01*
X55013Y98089D01*
X55028Y98148D01*
X55035Y98192D01*
X55042Y98207D01*
X55087Y98325D01*
X55138Y98428D01*
X55190Y98509D01*
X55242Y98583D01*
X55286Y98634D01*
X55323Y98678D01*
X55345Y98700D01*
X55352Y98708D01*
X55433Y98767D01*
X55507Y98804D01*
X55581Y98833D01*
X55647Y98855D01*
X55698Y98870D01*
X55743Y98877D01*
X55779D01*
X55861Y98870D01*
D02*
G37*
G36*
X64712Y97794D02*
X64778Y97779D01*
X64830Y97757D01*
X64874Y97728D01*
X64911Y97698D01*
X64933Y97676D01*
X64940Y97661D01*
X64948Y97654D01*
X64977Y97595D01*
X64992Y97521D01*
X64999Y97448D01*
X64992Y97374D01*
Y97308D01*
X64977Y97249D01*
X64970Y97212D01*
Y97204D01*
Y97197D01*
X63864D01*
X63909Y97285D01*
X63953Y97366D01*
X63997Y97433D01*
X64041Y97492D01*
X64078Y97529D01*
X64108Y97566D01*
X64122Y97580D01*
X64130Y97588D01*
X64218Y97661D01*
X64307Y97713D01*
X64388Y97750D01*
X64469Y97772D01*
X64535Y97794D01*
X64587Y97801D01*
X64631D01*
X64712Y97794D01*
D02*
G37*
G36*
X97354Y98818D02*
X97420Y98789D01*
X97479Y98745D01*
X97516Y98693D01*
X97545Y98642D01*
X97567Y98597D01*
X97575Y98568D01*
Y98553D01*
X97582Y98494D01*
X97575Y98428D01*
X97567Y98347D01*
X97560Y98266D01*
X97523Y98089D01*
X97479Y97904D01*
X97427Y97742D01*
X97405Y97661D01*
X97391Y97602D01*
X97368Y97543D01*
X97361Y97507D01*
X97346Y97477D01*
Y97470D01*
X97280Y97278D01*
X97214Y97116D01*
X97162Y96976D01*
X97110Y96865D01*
X97074Y96777D01*
X97044Y96718D01*
X97022Y96681D01*
X97015Y96666D01*
X96956Y96578D01*
X96904Y96497D01*
X96852Y96438D01*
X96801Y96379D01*
X96757Y96342D01*
X96727Y96313D01*
X96705Y96298D01*
X96698Y96290D01*
X96631Y96254D01*
X96573Y96224D01*
X96513Y96202D01*
X96462Y96187D01*
X96425Y96180D01*
X96388Y96173D01*
X96359D01*
X96270Y96187D01*
X96197Y96217D01*
X96145Y96261D01*
X96108Y96313D01*
X96079Y96364D01*
X96064Y96408D01*
X96049Y96438D01*
Y96453D01*
Y96512D01*
Y96578D01*
X96057Y96652D01*
X96071Y96733D01*
X96101Y96910D01*
X96145Y97087D01*
X96189Y97249D01*
X96211Y97322D01*
X96233Y97381D01*
X96248Y97433D01*
X96263Y97470D01*
X96270Y97499D01*
Y97507D01*
X96322Y97647D01*
X96366Y97772D01*
X96410Y97882D01*
X96455Y97993D01*
X96499Y98081D01*
X96536Y98170D01*
X96573Y98244D01*
X96609Y98310D01*
X96639Y98369D01*
X96668Y98420D01*
X96690Y98457D01*
X96712Y98487D01*
X96727Y98516D01*
X96742Y98531D01*
X96749Y98546D01*
X96838Y98642D01*
X96919Y98715D01*
X97007Y98767D01*
X97088Y98796D01*
X97155Y98818D01*
X97206Y98826D01*
X97243Y98833D01*
X97258D01*
X97354Y98818D01*
D02*
G37*
G36*
X91708D02*
X91775Y98789D01*
X91834Y98745D01*
X91870Y98693D01*
X91900Y98642D01*
X91922Y98597D01*
X91929Y98568D01*
Y98553D01*
X91937Y98494D01*
X91929Y98428D01*
X91922Y98347D01*
X91915Y98266D01*
X91878Y98089D01*
X91834Y97904D01*
X91782Y97742D01*
X91760Y97661D01*
X91745Y97602D01*
X91723Y97543D01*
X91716Y97507D01*
X91701Y97477D01*
Y97470D01*
X91635Y97278D01*
X91568Y97116D01*
X91517Y96976D01*
X91465Y96865D01*
X91428Y96777D01*
X91399Y96718D01*
X91377Y96681D01*
X91369Y96666D01*
X91310Y96578D01*
X91259Y96497D01*
X91207Y96438D01*
X91155Y96379D01*
X91111Y96342D01*
X91082Y96313D01*
X91060Y96298D01*
X91052Y96290D01*
X90986Y96254D01*
X90927Y96224D01*
X90868Y96202D01*
X90816Y96187D01*
X90780Y96180D01*
X90743Y96173D01*
X90713D01*
X90625Y96187D01*
X90551Y96217D01*
X90500Y96261D01*
X90463Y96313D01*
X90433Y96364D01*
X90418Y96408D01*
X90404Y96438D01*
Y96453D01*
Y96512D01*
Y96578D01*
X90411Y96652D01*
X90426Y96733D01*
X90455Y96910D01*
X90500Y97087D01*
X90544Y97249D01*
X90566Y97322D01*
X90588Y97381D01*
X90603Y97433D01*
X90618Y97470D01*
X90625Y97499D01*
Y97507D01*
X90676Y97647D01*
X90721Y97772D01*
X90765Y97882D01*
X90809Y97993D01*
X90853Y98081D01*
X90890Y98170D01*
X90927Y98244D01*
X90964Y98310D01*
X90993Y98369D01*
X91023Y98420D01*
X91045Y98457D01*
X91067Y98487D01*
X91082Y98516D01*
X91097Y98531D01*
X91104Y98546D01*
X91192Y98642D01*
X91273Y98715D01*
X91362Y98767D01*
X91443Y98796D01*
X91509Y98818D01*
X91561Y98826D01*
X91598Y98833D01*
X91612D01*
X91708Y98818D01*
D02*
G37*
G36*
X76268Y97683D02*
X76334Y97661D01*
X76393Y97632D01*
X76438Y97595D01*
X76467Y97558D01*
X76497Y97529D01*
X76504Y97507D01*
X76511Y97499D01*
X76541Y97426D01*
X76548Y97337D01*
X76541Y97241D01*
X76526Y97153D01*
X76511Y97064D01*
X76497Y96998D01*
X76482Y96954D01*
X76474Y96946D01*
Y96939D01*
X76415Y96792D01*
X76357Y96674D01*
X76298Y96571D01*
X76239Y96490D01*
X76194Y96423D01*
X76150Y96379D01*
X76121Y96350D01*
X76113Y96342D01*
X76032Y96283D01*
X75951Y96239D01*
X75877Y96209D01*
X75804Y96187D01*
X75745Y96173D01*
X75701Y96165D01*
X75656D01*
X75575Y96173D01*
X75509Y96195D01*
X75450Y96224D01*
X75406Y96261D01*
X75369Y96290D01*
X75347Y96320D01*
X75332Y96342D01*
X75325Y96350D01*
X75303Y96430D01*
X75288Y96519D01*
X75295Y96615D01*
X75310Y96703D01*
X75325Y96792D01*
X75340Y96858D01*
X75347Y96887D01*
X75354Y96910D01*
X75362Y96917D01*
Y96924D01*
X75413Y97057D01*
X75472Y97175D01*
X75524Y97278D01*
X75583Y97359D01*
X75634Y97418D01*
X75671Y97462D01*
X75701Y97492D01*
X75708Y97499D01*
X75796Y97566D01*
X75877Y97610D01*
X75959Y97647D01*
X76032Y97669D01*
X76099Y97683D01*
X76143Y97691D01*
X76187D01*
X76268Y97683D01*
D02*
G37*
G36*
X51800Y97462D02*
X51866Y97440D01*
X51925Y97411D01*
X51969Y97381D01*
X51999Y97344D01*
X52028Y97315D01*
X52035Y97293D01*
X52043Y97285D01*
X52072Y97212D01*
X52080Y97131D01*
Y97042D01*
X52065Y96961D01*
X52050Y96887D01*
X52035Y96829D01*
X52028Y96784D01*
X52021Y96777D01*
Y96770D01*
X51977Y96652D01*
X51925Y96548D01*
X51873Y96467D01*
X51822Y96394D01*
X51778Y96342D01*
X51741Y96298D01*
X51711Y96276D01*
X51704Y96268D01*
X51630Y96217D01*
X51549Y96173D01*
X51475Y96143D01*
X51416Y96128D01*
X51358Y96114D01*
X51313Y96106D01*
X51276D01*
X51195Y96114D01*
X51122Y96136D01*
X51063Y96165D01*
X51011Y96202D01*
X50974Y96232D01*
X50952Y96261D01*
X50937Y96283D01*
X50930Y96290D01*
X50901Y96364D01*
X50886Y96445D01*
Y96534D01*
X50893Y96615D01*
X50908Y96688D01*
X50923Y96747D01*
X50930Y96784D01*
X50937Y96799D01*
X50982Y96917D01*
X51033Y97013D01*
X51092Y97101D01*
X51144Y97167D01*
X51188Y97219D01*
X51225Y97263D01*
X51254Y97285D01*
X51262Y97293D01*
X51343Y97352D01*
X51424Y97396D01*
X51505Y97426D01*
X51571Y97448D01*
X51630Y97462D01*
X51682Y97470D01*
X51719D01*
X51800Y97462D01*
D02*
G37*
G36*
X91745Y99570D02*
X91598Y99555D01*
X91458Y99533D01*
X91318Y99504D01*
X91192Y99467D01*
X91074Y99430D01*
X90971Y99386D01*
X90868Y99349D01*
X90780Y99305D01*
X90706Y99261D01*
X90640Y99224D01*
X90581Y99187D01*
X90536Y99157D01*
X90507Y99135D01*
X90485Y99121D01*
X90478Y99113D01*
X90374Y99017D01*
X90271Y98914D01*
X90175Y98796D01*
X90087Y98671D01*
X89917Y98406D01*
X89777Y98140D01*
X89718Y98015D01*
X89667Y97897D01*
X89622Y97787D01*
X89586Y97691D01*
X89549Y97617D01*
X89527Y97558D01*
X89519Y97521D01*
X89512Y97507D01*
X89460Y97337D01*
X89416Y97175D01*
X89379Y97027D01*
X89350Y96902D01*
X89328Y96792D01*
X89313Y96711D01*
Y96681D01*
X89306Y96659D01*
Y96652D01*
Y96644D01*
X89291Y96512D01*
Y96283D01*
X89298Y96202D01*
X89306Y96128D01*
X89320Y96084D01*
X89328Y96047D01*
Y96040D01*
X89372Y95929D01*
X89424Y95834D01*
X89482Y95753D01*
X89542Y95686D01*
X89593Y95635D01*
X89637Y95598D01*
X89674Y95576D01*
X89682Y95568D01*
X89792Y95517D01*
X89910Y95472D01*
X90043Y95443D01*
X90168Y95428D01*
X90279Y95414D01*
X90330D01*
X90374Y95406D01*
X75391D01*
X75538Y95414D01*
X75678Y95428D01*
X75811Y95443D01*
X75944Y95472D01*
X76062Y95502D01*
X76180Y95539D01*
X76283Y95583D01*
X76386Y95620D01*
X76467Y95657D01*
X76548Y95701D01*
X76614Y95738D01*
X76674Y95767D01*
X76718Y95797D01*
X76747Y95819D01*
X76769Y95826D01*
X76777Y95834D01*
X76887Y95915D01*
X76983Y96003D01*
X77071Y96099D01*
X77160Y96187D01*
X77234Y96283D01*
X77300Y96372D01*
X77359Y96467D01*
X77411Y96548D01*
X77462Y96630D01*
X77499Y96703D01*
X77528Y96770D01*
X77558Y96829D01*
X77580Y96873D01*
X77595Y96910D01*
X77602Y96932D01*
Y96939D01*
X77639Y97050D01*
X77646Y97084D01*
X77661Y97153D01*
X77676Y97256D01*
X77691Y97352D01*
Y97521D01*
X77676Y97669D01*
X77661Y97735D01*
X77646Y97787D01*
X77632Y97838D01*
X77617Y97875D01*
X77609Y97904D01*
X77595Y97934D01*
X77587Y97941D01*
Y97949D01*
X77528Y98037D01*
X77455Y98118D01*
X77374Y98185D01*
X77285Y98251D01*
X77197Y98295D01*
X77101Y98339D01*
X76998Y98376D01*
X76902Y98398D01*
X76814Y98420D01*
X76725Y98435D01*
X76644Y98450D01*
X76570Y98457D01*
X76511Y98465D01*
X76430D01*
X76290Y98457D01*
X76150Y98443D01*
X76017Y98428D01*
X75892Y98398D01*
X75767Y98361D01*
X75656Y98325D01*
X75546Y98288D01*
X75450Y98251D01*
X75362Y98207D01*
X75288Y98170D01*
X75214Y98133D01*
X75155Y98096D01*
X75111Y98067D01*
X75081Y98052D01*
X75059Y98037D01*
X75052Y98030D01*
X74941Y97949D01*
X74846Y97860D01*
X74757Y97764D01*
X74676Y97676D01*
X74595Y97580D01*
X74529Y97492D01*
X74470Y97403D01*
X74418Y97315D01*
X74374Y97234D01*
X74337Y97160D01*
X74300Y97094D01*
X74278Y97035D01*
X74256Y96991D01*
X74241Y96954D01*
X74234Y96932D01*
Y96924D01*
X74197Y96792D01*
X74168Y96666D01*
X74153Y96548D01*
Y96438D01*
Y96335D01*
X74168Y96239D01*
X74190Y96150D01*
X74212Y96069D01*
X74234Y96003D01*
X74264Y95937D01*
X74293Y95885D01*
X74315Y95841D01*
X74337Y95804D01*
X74359Y95782D01*
X74367Y95767D01*
X74374Y95760D01*
X74440Y95701D01*
X74507Y95642D01*
X74536Y95625D01*
X74661Y95553D01*
X74831Y95495D01*
X75001Y95450D01*
X75148Y95428D01*
X75214Y95414D01*
X75273D01*
X75325Y95406D01*
X69908D01*
X70114Y95414D01*
X70298Y95428D01*
X70453Y95450D01*
X70593Y95480D01*
X70704Y95502D01*
X70748Y95517D01*
X70785Y95524D01*
X70814Y95531D01*
X70836Y95539D01*
X70844Y95546D01*
X70851D01*
X70984Y95605D01*
X71109Y95664D01*
X71212Y95730D01*
X71301Y95789D01*
X71367Y95841D01*
X71419Y95885D01*
X71456Y95915D01*
X71463Y95922D01*
X71544Y96011D01*
X71610Y96099D01*
X71669Y96187D01*
X71713Y96261D01*
X71743Y96327D01*
X71765Y96372D01*
X71772Y96408D01*
X71780Y96416D01*
X71809Y96504D01*
X71817Y96593D01*
X71824Y96674D01*
Y96740D01*
X71817Y96792D01*
X71802Y96836D01*
X71794Y96865D01*
Y96873D01*
X71758Y96946D01*
X71713Y97013D01*
X71662Y97072D01*
X71610Y97116D01*
X71566Y97153D01*
X71522Y97175D01*
X71492Y97190D01*
X71485Y97197D01*
X71382Y97241D01*
X71264Y97278D01*
X71139Y97308D01*
X71013Y97330D01*
X70895Y97352D01*
X70844Y97359D01*
X70800Y97366D01*
X70763D01*
X70733Y97374D01*
X70711D01*
X70593Y97389D01*
X70490Y97411D01*
X70416Y97426D01*
X70357Y97440D01*
X70313Y97455D01*
X70291Y97470D01*
X70276Y97477D01*
X70269D01*
X70239Y97499D01*
X70225Y97521D01*
X70217Y97551D01*
X70210Y97580D01*
Y97624D01*
X70217Y97632D01*
Y97639D01*
X70232Y97676D01*
X70254Y97706D01*
X70298Y97757D01*
X70343Y97787D01*
X70350Y97801D01*
X70357D01*
X70402Y97824D01*
X70453Y97846D01*
X70549Y97868D01*
X70593Y97875D01*
X70726D01*
X70785Y97860D01*
X70829Y97846D01*
X70873Y97831D01*
X70903Y97816D01*
X70925Y97801D01*
X70940Y97794D01*
X70947Y97787D01*
X70976Y97757D01*
X70991Y97728D01*
X71013Y97661D01*
X71021Y97632D01*
Y97602D01*
Y97588D01*
Y97580D01*
X72111Y97683D01*
X72104Y97787D01*
X72089Y97875D01*
X72075Y97949D01*
X72053Y98015D01*
X72030Y98067D01*
X72008Y98103D01*
X72001Y98126D01*
X71993Y98133D01*
X71949Y98192D01*
X71898Y98244D01*
X71839Y98288D01*
X71787Y98325D01*
X71736Y98347D01*
X71699Y98369D01*
X71669Y98384D01*
X71662D01*
X71566Y98413D01*
X71448Y98428D01*
X71330Y98443D01*
X71205Y98457D01*
X71087D01*
X71043Y98465D01*
X70910D01*
X70733Y98457D01*
X70571Y98450D01*
X70431Y98428D01*
X70313Y98413D01*
X70217Y98391D01*
X70144Y98369D01*
X70099Y98361D01*
X70092Y98354D01*
X70085D01*
X69967Y98310D01*
X69856Y98266D01*
X69760Y98214D01*
X69679Y98163D01*
X69613Y98118D01*
X69561Y98081D01*
X69532Y98052D01*
X69517Y98045D01*
X69436Y97964D01*
X69362Y97882D01*
X69303Y97794D01*
X69259Y97720D01*
X69222Y97647D01*
X69200Y97595D01*
X69186Y97558D01*
X69178Y97543D01*
X69156Y97448D01*
X69141Y97359D01*
X69134Y97285D01*
X69141Y97212D01*
X69149Y97160D01*
X69163Y97116D01*
X69171Y97087D01*
Y97079D01*
X69208Y97005D01*
X69252Y96946D01*
X69303Y96895D01*
X69348Y96858D01*
X69392Y96821D01*
X69429Y96799D01*
X69451Y96792D01*
X69458Y96784D01*
X69502Y96770D01*
X69547Y96747D01*
X69657Y96718D01*
X69783Y96688D01*
X69908Y96659D01*
X70018Y96630D01*
X70070Y96622D01*
X70114Y96607D01*
X70151Y96600D01*
X70180D01*
X70195Y96593D01*
X70203D01*
X70328Y96571D01*
X70431Y96548D01*
X70505Y96526D01*
X70564Y96512D01*
X70601Y96497D01*
X70630Y96482D01*
X70645Y96475D01*
X70674Y96445D01*
X70696Y96416D01*
X70711Y96386D01*
Y96357D01*
Y96313D01*
X70704Y96298D01*
Y96290D01*
X70689Y96254D01*
X70667Y96217D01*
X70615Y96158D01*
X70571Y96128D01*
X70556Y96114D01*
X70549D01*
X70490Y96084D01*
X70424Y96062D01*
X70298Y96033D01*
X70247Y96025D01*
X70203Y96018D01*
X70166D01*
X70092Y96025D01*
X70033Y96033D01*
X69981Y96047D01*
X69937Y96062D01*
X69908Y96077D01*
X69886Y96084D01*
X69871Y96099D01*
X69864D01*
X69834Y96136D01*
X69812Y96180D01*
X69790Y96283D01*
X69783Y96327D01*
X69775Y96357D01*
Y96386D01*
Y96394D01*
X68625Y96290D01*
Y96143D01*
X68640Y96011D01*
X68677Y95893D01*
X68714Y95804D01*
X68758Y95730D01*
X68802Y95679D01*
X68832Y95642D01*
X68839Y95635D01*
X68898Y95598D01*
X68964Y95561D01*
X69038Y95531D01*
X69119Y95502D01*
X69261Y95472D01*
X69296Y95465D01*
X69473Y95436D01*
X69643Y95421D01*
X69716Y95414D01*
X69775D01*
X69834Y95406D01*
X63798D01*
X64041Y95414D01*
X64255Y95436D01*
X64439Y95465D01*
X64520Y95487D01*
X64594Y95502D01*
X64660Y95517D01*
X64719Y95539D01*
X64771Y95553D01*
X64815Y95568D01*
X64845Y95583D01*
X64867Y95590D01*
X64881Y95598D01*
X64889D01*
X65051Y95679D01*
X65198Y95775D01*
X65338Y95885D01*
X65464Y95988D01*
X65574Y96084D01*
X65655Y96158D01*
X65685Y96187D01*
X65707Y96209D01*
X65714Y96224D01*
X65722Y96232D01*
X64646Y96335D01*
X64594Y96283D01*
X64542Y96246D01*
X64498Y96209D01*
X64461Y96187D01*
X64432Y96165D01*
X64410Y96150D01*
X64395Y96143D01*
X64388D01*
X64321Y96114D01*
X64262Y96099D01*
X64203Y96084D01*
X64152Y96069D01*
X64108D01*
X64078Y96062D01*
X64049D01*
X63960Y96069D01*
X63879Y96092D01*
X63820Y96121D01*
X63769Y96158D01*
X63732Y96195D01*
X63710Y96224D01*
X63695Y96246D01*
X63687Y96254D01*
X63665Y96313D01*
X63658Y96372D01*
Y96438D01*
Y96504D01*
X63665Y96563D01*
X63673Y96615D01*
X63680Y96644D01*
Y96659D01*
X65928D01*
X65972Y96784D01*
X66039Y96991D01*
X66061Y97101D01*
X66075Y97175D01*
X66097Y97330D01*
X66112Y97470D01*
Y97573D01*
Y97617D01*
X66105Y97654D01*
Y97683D01*
X66097Y97706D01*
Y97713D01*
Y97720D01*
X66061Y97846D01*
X66009Y97956D01*
X65950Y98052D01*
X65891Y98133D01*
X65825Y98192D01*
X65781Y98236D01*
X65744Y98266D01*
X65729Y98273D01*
X65670Y98310D01*
X65604Y98339D01*
X65464Y98384D01*
X65309Y98420D01*
X65162Y98443D01*
X65022Y98457D01*
X64963D01*
X64911Y98465D01*
X64808D01*
X64668Y98457D01*
X64528Y98450D01*
X64395Y98428D01*
X64270Y98398D01*
X64152Y98369D01*
X64034Y98332D01*
X63931Y98288D01*
X63835Y98251D01*
X63747Y98214D01*
X63673Y98170D01*
X63606Y98133D01*
X63547Y98103D01*
X63503Y98074D01*
X63474Y98059D01*
X63452Y98045D01*
X63444Y98037D01*
X63341Y97956D01*
X63245Y97868D01*
X63157Y97779D01*
X63076Y97683D01*
X63002Y97588D01*
X62936Y97499D01*
X62818Y97322D01*
X62774Y97241D01*
X62737Y97167D01*
X62707Y97094D01*
X62678Y97035D01*
X62656Y96991D01*
X62648Y96954D01*
X62634Y96932D01*
Y96924D01*
X62582Y96747D01*
X62552Y96593D01*
X62538Y96445D01*
X62530Y96327D01*
X62538Y96224D01*
X62545Y96150D01*
X62552Y96121D01*
X62560Y96099D01*
Y96092D01*
Y96084D01*
X62604Y95959D01*
X62663Y95856D01*
X62722Y95767D01*
X62788Y95693D01*
X62847Y95642D01*
X62892Y95598D01*
X62921Y95576D01*
X62936Y95568D01*
X63054Y95517D01*
X63186Y95472D01*
X63334Y95443D01*
X63474Y95428D01*
X63599Y95414D01*
X63658D01*
X63702Y95406D01*
X54608D01*
X54762Y95414D01*
X54902Y95428D01*
X55042Y95450D01*
X55175Y95487D01*
X55308Y95524D01*
X55426Y95568D01*
X55536Y95613D01*
X55639Y95657D01*
X55728Y95701D01*
X55809Y95753D01*
X55883Y95789D01*
X55942Y95826D01*
X55986Y95863D01*
X56023Y95885D01*
X56045Y95900D01*
X56052Y95907D01*
X56170Y96011D01*
X56281Y96121D01*
X56384Y96246D01*
X56480Y96372D01*
X56649Y96637D01*
X56723Y96770D01*
X56797Y96895D01*
X56855Y97020D01*
X56907Y97138D01*
X56959Y97241D01*
X56996Y97330D01*
X57025Y97403D01*
X57047Y97462D01*
X57055Y97492D01*
X57062Y97507D01*
X57106Y97639D01*
X57143Y97772D01*
X57172Y97890D01*
X57195Y98008D01*
X57217Y98111D01*
X57231Y98214D01*
X57239Y98303D01*
X57246Y98384D01*
X57253Y98457D01*
Y98656D01*
X57246Y98678D01*
Y98693D01*
Y98700D01*
X57209Y98863D01*
X57165Y98995D01*
X57106Y99113D01*
X57040Y99202D01*
X56981Y99275D01*
X56929Y99327D01*
X56900Y99356D01*
X56885Y99364D01*
X56760Y99437D01*
X56620Y99489D01*
X56472Y99526D01*
X56325Y99548D01*
X56192Y99570D01*
X56133D01*
X56082Y99577D01*
X86195D01*
X86078Y99437D01*
X85952Y99312D01*
X85834Y99202D01*
X85724Y99113D01*
X85628Y99032D01*
X85547Y98973D01*
X85517Y98958D01*
X85495Y98944D01*
X85488Y98929D01*
X85481D01*
X85318Y98833D01*
X85149Y98752D01*
X84972Y98678D01*
X84810Y98612D01*
X84662Y98561D01*
X84604Y98538D01*
X84545Y98516D01*
X84500Y98509D01*
X84471Y98494D01*
X84449Y98487D01*
X84441D01*
X84124Y97573D01*
X84279Y97617D01*
X84419Y97654D01*
X84545Y97698D01*
X84648Y97735D01*
X84736Y97764D01*
X84803Y97787D01*
X84839Y97801D01*
X84854Y97809D01*
X84972Y97860D01*
X85083Y97919D01*
X85193Y97978D01*
X85289Y98030D01*
X85377Y98081D01*
X85444Y98118D01*
X85488Y98148D01*
X85495Y98155D01*
X85503D01*
X84596Y95472D01*
X85731D01*
X87124Y99577D01*
X91900D01*
X91745Y99570D01*
D02*
G37*
G36*
X52293D02*
X52146Y99555D01*
X52006Y99533D01*
X51873Y99497D01*
X51748Y99460D01*
X51630Y99415D01*
X51520Y99371D01*
X51416Y99327D01*
X51321Y99275D01*
X51240Y99231D01*
X51166Y99187D01*
X51107Y99150D01*
X51063Y99113D01*
X51026Y99091D01*
X51004Y99076D01*
X50996Y99069D01*
X50878Y98966D01*
X50768Y98855D01*
X50672Y98730D01*
X50576Y98605D01*
X50399Y98339D01*
X50326Y98207D01*
X50259Y98081D01*
X50200Y97956D01*
X50141Y97838D01*
X50097Y97735D01*
X50060Y97647D01*
X50031Y97573D01*
X50009Y97521D01*
X50001Y97484D01*
X49994Y97470D01*
X49950Y97330D01*
X49913Y97204D01*
X49883Y97079D01*
X49854Y96969D01*
X49832Y96858D01*
X49817Y96762D01*
X49810Y96666D01*
X49802Y96585D01*
X49795Y96512D01*
Y96313D01*
X49802Y96290D01*
Y96276D01*
Y96268D01*
X49839Y96114D01*
X49883Y95974D01*
X49942Y95863D01*
X50009Y95775D01*
X50068Y95701D01*
X50119Y95649D01*
X50149Y95620D01*
X50164Y95613D01*
X50222Y95576D01*
X50289Y95546D01*
X50429Y95495D01*
X50584Y95458D01*
X50731Y95436D01*
X50864Y95421D01*
X50923Y95414D01*
X50967Y95406D01*
X35144D01*
X35357Y95414D01*
X35549Y95443D01*
X35726Y95480D01*
X35881Y95531D01*
X35947Y95553D01*
X36006Y95576D01*
X36050Y95590D01*
X36094Y95613D01*
X36131Y95627D01*
X36153Y95642D01*
X36168Y95649D01*
X36175D01*
X36337Y95745D01*
X36478Y95848D01*
X36595Y95951D01*
X36699Y96047D01*
X36772Y96136D01*
X36831Y96202D01*
X36861Y96246D01*
X36876Y96254D01*
Y96261D01*
X36920Y96335D01*
X36971Y96408D01*
X37060Y96578D01*
X37141Y96755D01*
X37163Y96806D01*
D01*
X37214Y96924D01*
X37273Y97079D01*
X37303Y97145D01*
X37325Y97204D01*
X37340Y97249D01*
X37354Y97285D01*
X37362Y97308D01*
Y97315D01*
X38106Y99511D01*
X36853D01*
X36006Y97027D01*
X35962Y96902D01*
X35910Y96792D01*
X35866Y96703D01*
X35822Y96630D01*
X35785Y96571D01*
X35755Y96534D01*
X35733Y96512D01*
X35726Y96504D01*
X35667Y96453D01*
X35608Y96416D01*
X35549Y96386D01*
X35497Y96372D01*
X35446Y96357D01*
X35409Y96350D01*
X35328D01*
X35291Y96357D01*
X35232Y96379D01*
X35195Y96394D01*
X35188Y96401D01*
X35158Y96430D01*
X35144Y96460D01*
X35114Y96526D01*
Y96556D01*
X35107Y96578D01*
Y96593D01*
Y96600D01*
X35114Y96659D01*
X35121Y96718D01*
X35151Y96851D01*
X35166Y96910D01*
X35180Y96961D01*
X35195Y96991D01*
Y97005D01*
X34348Y96895D01*
X33950Y96843D01*
X33913Y96674D01*
X33891Y96519D01*
X33876Y96386D01*
Y96268D01*
X33883Y96173D01*
X33891Y96106D01*
X33898Y96062D01*
Y96055D01*
Y96047D01*
X33935Y95937D01*
X33986Y95841D01*
X34045Y95760D01*
X34104Y95686D01*
X34156Y95635D01*
X34207Y95598D01*
X34237Y95576D01*
X34252Y95568D01*
X34311Y95539D01*
X34370Y95517D01*
X34510Y95472D01*
X34657Y95443D01*
X34804Y95428D01*
X34937Y95414D01*
X34996D01*
X35040Y95406D01*
X31112D01*
X31296Y95414D01*
X31473Y95428D01*
X31628Y95450D01*
X31761Y95472D01*
X31879Y95495D01*
X31923Y95509D01*
X31960Y95517D01*
X31989Y95524D01*
X32011Y95531D01*
X32026Y95539D01*
X32033D01*
X32144Y95583D01*
X32254Y95635D01*
X32358Y95686D01*
X32453Y95738D01*
X32527Y95789D01*
X32594Y95834D01*
X32630Y95863D01*
X32645Y95870D01*
X32763Y95959D01*
X32866Y96055D01*
X32955Y96150D01*
X33036Y96239D01*
X33102Y96313D01*
X33146Y96372D01*
X33176Y96408D01*
X33183Y96423D01*
X33264Y96548D01*
X33331Y96666D01*
X33389Y96777D01*
X33441Y96887D01*
X33478Y96976D01*
X33507Y97042D01*
X33522Y97087D01*
X33529Y97094D01*
Y97101D01*
X34025Y98561D01*
X34348Y99511D01*
X33102D01*
X32262Y97050D01*
X32218Y96932D01*
X32159Y96829D01*
X32100Y96733D01*
X32041Y96659D01*
X31989Y96600D01*
X31945Y96563D01*
X31915Y96534D01*
X31901Y96526D01*
X31805Y96467D01*
X31709Y96423D01*
X31613Y96394D01*
X31525Y96372D01*
X31451Y96357D01*
X31385Y96350D01*
X31333D01*
X31223Y96357D01*
X31127Y96379D01*
X31046Y96408D01*
X30987Y96445D01*
X30943Y96475D01*
X30906Y96504D01*
X30891Y96526D01*
X30884Y96534D01*
X30847Y96607D01*
X30832Y96696D01*
Y96777D01*
X30839Y96858D01*
X30847Y96932D01*
X30861Y96998D01*
X30869Y97035D01*
X30876Y97050D01*
X31716Y99511D01*
X30471D01*
X29653Y97101D01*
X29616Y96991D01*
X29594Y96873D01*
X29572Y96755D01*
X29557Y96652D01*
X29542Y96563D01*
Y96490D01*
X29535Y96460D01*
Y99511D01*
Y99577D01*
X44791D01*
X44673Y99437D01*
X44548Y99312D01*
X44430Y99202D01*
X44319Y99113D01*
X44223Y99032D01*
X44142Y98973D01*
X44113Y98958D01*
X44091Y98944D01*
X44083Y98929D01*
X44076D01*
X43914Y98833D01*
X43744Y98752D01*
X43567Y98678D01*
X43405Y98612D01*
X43258Y98561D01*
X43199Y98538D01*
X43140Y98516D01*
X43096Y98509D01*
X43066Y98494D01*
X43044Y98487D01*
X43037D01*
X42720Y97573D01*
X42875Y97617D01*
X43015Y97654D01*
X43140Y97698D01*
X43243Y97735D01*
X43332Y97764D01*
X43398Y97787D01*
X43435Y97801D01*
X43450Y97809D01*
X43567Y97860D01*
X43678Y97919D01*
X43788Y97978D01*
X43884Y98030D01*
X43973Y98081D01*
X44039Y98118D01*
X44083Y98148D01*
X44091Y98155D01*
X44098D01*
X43191Y95472D01*
X44326D01*
X45720Y99577D01*
X48557D01*
X48439Y99437D01*
X48314Y99312D01*
X48196Y99202D01*
X48085Y99113D01*
X47989Y99032D01*
X47908Y98973D01*
X47879Y98958D01*
X47857Y98944D01*
X47849Y98929D01*
X47842D01*
X47680Y98833D01*
X47510Y98752D01*
X47333Y98678D01*
X47171Y98612D01*
X47024Y98561D01*
X46965Y98538D01*
X46906Y98516D01*
X46862Y98509D01*
X46832Y98494D01*
X46810Y98487D01*
X46803D01*
X46486Y97573D01*
X46641Y97617D01*
X46781Y97654D01*
X46906Y97698D01*
X47009Y97735D01*
X47098Y97764D01*
X47164Y97787D01*
X47201Y97801D01*
X47216Y97809D01*
X47333Y97860D01*
X47444Y97919D01*
X47555Y97978D01*
X47650Y98030D01*
X47739Y98081D01*
X47805Y98118D01*
X47849Y98148D01*
X47857Y98155D01*
X47864D01*
X46958Y95472D01*
X48093D01*
X49485Y99577D01*
X52441D01*
X52293Y99570D01*
D02*
G37*
G36*
X98688Y95406D02*
X96101D01*
X96270Y95414D01*
X96425Y95428D01*
X96573Y95450D01*
X96712Y95487D01*
X96838Y95524D01*
X96956Y95568D01*
X97066Y95613D01*
X97169Y95664D01*
X97258Y95708D01*
X97332Y95753D01*
X97398Y95797D01*
X97457Y95834D01*
X97494Y95870D01*
X97531Y95893D01*
X97545Y95907D01*
X97553Y95915D01*
X97656Y96018D01*
X97752Y96128D01*
X97840Y96254D01*
X97929Y96379D01*
X98083Y96644D01*
X98216Y96910D01*
X98275Y97035D01*
X98326Y97145D01*
X98371Y97249D01*
X98408Y97344D01*
X98437Y97418D01*
X98459Y97470D01*
X98466Y97507D01*
X98474Y97521D01*
X98533Y97698D01*
X98577Y97875D01*
X98614Y98030D01*
X98643Y98170D01*
X98658Y98288D01*
X98665Y98339D01*
X98673Y98376D01*
Y98413D01*
X98680Y98435D01*
Y98450D01*
Y98457D01*
X98688Y98546D01*
Y95406D01*
D02*
G37*
G36*
X97391Y99570D02*
X97243Y99555D01*
X97103Y99533D01*
X96963Y99504D01*
X96838Y99467D01*
X96720Y99430D01*
X96617Y99386D01*
X96513Y99349D01*
X96425Y99305D01*
X96351Y99261D01*
X96285Y99224D01*
X96226Y99187D01*
X96182Y99157D01*
X96152Y99135D01*
X96130Y99121D01*
X96123Y99113D01*
X96020Y99017D01*
X95916Y98914D01*
X95821Y98796D01*
X95732Y98671D01*
X95563Y98406D01*
X95423Y98140D01*
X95364Y98015D01*
X95312Y97897D01*
X95268Y97787D01*
X95231Y97691D01*
X95194Y97617D01*
X95172Y97558D01*
X95165Y97521D01*
X95157Y97507D01*
X95106Y97337D01*
X95062Y97175D01*
X95025Y97027D01*
X94995Y96902D01*
X94973Y96792D01*
X94958Y96711D01*
Y96681D01*
X94951Y96659D01*
Y96652D01*
Y96644D01*
X94936Y96512D01*
Y96283D01*
X94944Y96202D01*
X94951Y96128D01*
X94966Y96084D01*
X94973Y96047D01*
Y96040D01*
X95017Y95929D01*
X95069Y95834D01*
X95128Y95753D01*
X95187Y95686D01*
X95239Y95635D01*
X95283Y95598D01*
X95320Y95576D01*
X95327Y95568D01*
X95438Y95517D01*
X95555Y95472D01*
X95688Y95443D01*
X95813Y95428D01*
X95924Y95414D01*
X95976D01*
X96020Y95406D01*
X90455D01*
X90625Y95414D01*
X90780Y95428D01*
X90927Y95450D01*
X91067Y95487D01*
X91192Y95524D01*
X91310Y95568D01*
X91421Y95613D01*
X91524Y95664D01*
X91612Y95708D01*
X91686Y95753D01*
X91752Y95797D01*
X91811Y95834D01*
X91848Y95870D01*
X91885Y95893D01*
X91900Y95907D01*
X91907Y95915D01*
X92010Y96018D01*
X92106Y96128D01*
X92195Y96254D01*
X92283Y96379D01*
X92438Y96644D01*
X92571Y96910D01*
X92629Y97035D01*
X92681Y97145D01*
X92725Y97249D01*
X92762Y97344D01*
X92792Y97418D01*
X92814Y97470D01*
X92821Y97507D01*
X92829Y97521D01*
X92888Y97698D01*
X92932Y97875D01*
X92968Y98030D01*
X92998Y98170D01*
X93013Y98288D01*
X93020Y98339D01*
X93028Y98376D01*
Y98413D01*
X93035Y98435D01*
Y98450D01*
Y98457D01*
X93042Y98546D01*
Y98693D01*
X93035Y98752D01*
X93028Y98804D01*
Y98840D01*
X93020Y98863D01*
Y98870D01*
X93005Y98936D01*
X92983Y99003D01*
X92961Y99062D01*
X92939Y99106D01*
X92910Y99150D01*
X92895Y99180D01*
X92880Y99202D01*
X92873Y99209D01*
X92829Y99268D01*
X92777Y99320D01*
X92718Y99364D01*
X92659Y99401D01*
X92615Y99430D01*
X92571Y99460D01*
X92541Y99467D01*
X92534Y99474D01*
X92445Y99511D01*
X92342Y99533D01*
X92239Y99555D01*
X92136Y99563D01*
X92040Y99570D01*
X91966Y99577D01*
X97545D01*
X97391Y99570D01*
D02*
G37*
G36*
X29550Y96246D02*
X29564Y96165D01*
X29586Y96099D01*
X29609Y96040D01*
X29631Y95988D01*
X29638Y95959D01*
X29645Y95951D01*
X29690Y95870D01*
X29741Y95804D01*
X29793Y95745D01*
X29844Y95693D01*
X29889Y95657D01*
X29926Y95627D01*
X29948Y95613D01*
X29955Y95605D01*
X30036Y95568D01*
X30117Y95531D01*
X30206Y95502D01*
X30287Y95487D01*
X30360Y95465D01*
X30427Y95458D01*
X30463Y95450D01*
X30478D01*
X30604Y95436D01*
X30722Y95428D01*
X30825Y95414D01*
X30920D01*
X31002Y95406D01*
X29535D01*
Y96335D01*
X29550Y96246D01*
D02*
G37*
%LPC*%
G36*
X74536Y99511D02*
X73416D01*
X73151Y98745D01*
X74271D01*
X74536Y99511D01*
D02*
G37*
G36*
X80808Y98465D02*
X80764D01*
X80638Y98457D01*
X80521Y98443D01*
X80410Y98428D01*
X80314Y98406D01*
X80240Y98376D01*
X80182Y98361D01*
X80145Y98347D01*
X80130Y98339D01*
X80027Y98288D01*
X79916Y98221D01*
X79813Y98155D01*
X79717Y98081D01*
X79636Y98023D01*
X79577Y97971D01*
X79533Y97934D01*
X79526Y97919D01*
X79518D01*
X79680Y98398D01*
X78634D01*
X77646Y95472D01*
X78767D01*
X79238Y96873D01*
X79290Y97013D01*
X79349Y97131D01*
X79400Y97227D01*
X79452Y97308D01*
X79489Y97359D01*
X79526Y97403D01*
X79548Y97426D01*
X79555Y97433D01*
X79621Y97484D01*
X79695Y97521D01*
X79754Y97551D01*
X79813Y97566D01*
X79865Y97580D01*
X79901Y97588D01*
X79938D01*
X80005Y97580D01*
X80056Y97573D01*
X80093Y97551D01*
X80130Y97529D01*
X80152Y97507D01*
X80167Y97492D01*
X80182Y97477D01*
Y97470D01*
X80196Y97418D01*
X80204Y97359D01*
Y97293D01*
X80196Y97234D01*
X80182Y97175D01*
X80174Y97123D01*
X80167Y97094D01*
X80159Y97079D01*
X79614Y95472D01*
X80742D01*
X81368Y97330D01*
X81405Y97433D01*
X81427Y97529D01*
X81457Y97706D01*
X81464Y97853D01*
X81457Y97971D01*
X81442Y98067D01*
X81420Y98133D01*
X81405Y98170D01*
X81398Y98185D01*
X81324Y98280D01*
X81228Y98347D01*
X81125Y98398D01*
X81014Y98428D01*
X80919Y98450D01*
X80838Y98457D01*
X80808Y98465D01*
D02*
G37*
G36*
X68883D02*
X68839D01*
X68751Y98457D01*
X68670Y98450D01*
X68596Y98428D01*
X68530Y98406D01*
X68471Y98384D01*
X68434Y98369D01*
X68404Y98354D01*
X68397Y98347D01*
X68323Y98295D01*
X68242Y98229D01*
X68168Y98163D01*
X68095Y98089D01*
X68036Y98023D01*
X67984Y97971D01*
X67955Y97934D01*
X67940Y97919D01*
X68102Y98398D01*
X67048D01*
X66061Y95472D01*
X67188D01*
X67520Y96453D01*
X67564Y96578D01*
X67608Y96696D01*
X67653Y96799D01*
X67697Y96895D01*
X67741Y96983D01*
X67785Y97064D01*
X67822Y97131D01*
X67859Y97197D01*
X67896Y97249D01*
X67925Y97293D01*
X67955Y97330D01*
X67977Y97359D01*
X68006Y97396D01*
X68021Y97411D01*
X68087Y97470D01*
X68161Y97514D01*
X68227Y97551D01*
X68286Y97573D01*
X68338Y97588D01*
X68382Y97595D01*
X68463D01*
X68515Y97580D01*
X68611Y97551D01*
X68625Y97545D01*
X68647Y97536D01*
X68677Y97521D01*
X68699Y97514D01*
X68707Y97507D01*
X69326Y98310D01*
X69237Y98361D01*
X69149Y98398D01*
X69068Y98428D01*
X68994Y98443D01*
X68928Y98457D01*
X68883Y98465D01*
D02*
G37*
G36*
X62943Y98398D02*
X61816D01*
X60592Y96541D01*
X60658Y98398D01*
X59487D01*
X59715Y95472D01*
X60710D01*
X62530Y97858D01*
D01*
X62943Y98398D01*
D02*
G37*
G36*
X88642Y96600D02*
X87441D01*
X87124Y95668D01*
X87058Y95472D01*
X88259D01*
X88642Y96600D01*
D02*
G37*
G36*
X74153Y98398D02*
X73033D01*
X72045Y95472D01*
X73165D01*
X74153Y98398D01*
D02*
G37*
G36*
X41415Y99511D02*
X40045D01*
X38106Y96795D01*
X37163Y95472D01*
X38438D01*
X38865Y96136D01*
X40273D01*
X40251Y95472D01*
X41563D01*
X41415Y99511D01*
D02*
G37*
%LPD*%
G36*
X40310Y97013D02*
X39426D01*
X40361Y98457D01*
X40310Y97013D01*
D02*
G37*
%LPC*%
G36*
X94288Y96600D02*
X93086D01*
X92703Y95472D01*
X93905D01*
X94288Y96600D01*
D02*
G37*
%LPD*%
D10*
X49016Y70669D02*
G03*
X49016Y70669I-197J0D01*
G01*
D11*
X96949Y61614D02*
G03*
X96949Y61614I-492J0D01*
G01*
D12*
X63366Y47441D02*
X65748D01*
X50394D02*
X52776D01*
X63366Y70669D02*
X65748D01*
X50394D02*
X52776D01*
X65748Y47441D02*
Y48130D01*
Y69980D02*
Y70669D01*
X50394Y47441D02*
Y48130D01*
Y69980D02*
Y70669D01*
X114516Y7500D02*
X124516D01*
X114516D02*
Y107500D01*
X124516D01*
Y100000D02*
Y107500D01*
Y7500D02*
Y100000D01*
X6516Y107000D02*
X16516D01*
Y7000D02*
Y107000D01*
X6516Y7000D02*
X16516D01*
X6516D02*
Y14500D01*
Y107000D01*
X99744Y59882D02*
X102953D01*
Y57284D02*
Y59882D01*
X99744Y48386D02*
X102953D01*
Y50984D01*
X91142Y32401D02*
Y38504D01*
X97835D01*
X91142Y32401D02*
X97835D01*
X50240Y37013D02*
X52602D01*
X50240Y26777D02*
X52602D01*
X34449Y65583D02*
Y69913D01*
X40354Y65583D02*
Y69913D01*
X77165Y54134D02*
X81496D01*
X77165Y48228D02*
X81496D01*
D13*
X50197Y74849D02*
Y72350D01*
X50697Y71850D01*
X51696D01*
X52196Y72350D01*
Y74849D01*
X53196Y71850D02*
X54196D01*
X53696D01*
Y74849D01*
X53196Y74350D01*
X109699Y55299D02*
X109200Y55799D01*
X108200D01*
X107700Y55299D01*
Y53300D01*
X108200Y52800D01*
X109200D01*
X109699Y53300D01*
X112199Y52800D02*
Y55799D01*
X110699Y54299D01*
X112698D01*
X97441Y66688D02*
X94442D01*
Y68188D01*
X94942Y68687D01*
X95941D01*
X96441Y68188D01*
Y66688D01*
Y67688D02*
X97441Y68687D01*
Y71687D02*
Y69687D01*
X95442Y71687D01*
X94942D01*
X94442Y71187D01*
Y70187D01*
X94942Y69687D01*
X75404Y72178D02*
Y75177D01*
X76903D01*
X77403Y74678D01*
Y73678D01*
X76903Y73178D01*
X75404D01*
X76403D02*
X77403Y72178D01*
X79902D02*
Y75177D01*
X78403Y73678D01*
X80402D01*
X77756Y41087D02*
X74757D01*
Y42586D01*
X75257Y43086D01*
X76256D01*
X76756Y42586D01*
Y41087D01*
Y42087D02*
X77756Y43086D01*
X74757Y46085D02*
Y44086D01*
X76256D01*
X75757Y45086D01*
Y45586D01*
X76256Y46085D01*
X77256D01*
X77756Y45586D01*
Y44586D01*
X77256Y44086D01*
X56248Y38012D02*
Y41011D01*
X57748D01*
X58247Y40512D01*
Y39512D01*
X57748Y39012D01*
X56248D01*
X57248D02*
X58247Y38012D01*
X59247Y40512D02*
X59747Y41011D01*
X60747D01*
X61246Y40512D01*
Y40012D01*
X60747Y39512D01*
X60247D01*
X60747D01*
X61246Y39012D01*
Y38512D01*
X60747Y38012D01*
X59747D01*
X59247Y38512D01*
X35433Y50500D02*
Y53499D01*
X36933D01*
X37432Y52999D01*
Y51999D01*
X36933Y51500D01*
X35433D01*
X36433D02*
X37432Y50500D01*
X38432D02*
X39432D01*
X38932D01*
Y53499D01*
X38432Y52999D01*
X101457Y51987D02*
X99458D01*
X98958Y51488D01*
Y50488D01*
X99458Y49988D01*
X101457D01*
X101957Y50488D01*
Y51488D01*
X100957Y50988D02*
X101957Y51987D01*
Y51488D02*
X101457Y51987D01*
X101957Y52987D02*
Y53987D01*
Y53487D01*
X98958D01*
X99458Y52987D01*
X96045Y31840D02*
Y28841D01*
X97544D01*
X98044Y29341D01*
Y31340D01*
X97544Y31840D01*
X96045D01*
X99044Y28841D02*
X100043D01*
X99544D01*
Y31840D01*
X99044Y31340D01*
X89062Y70845D02*
X89562Y71345D01*
Y72344D01*
X89062Y72844D01*
X87063D01*
X86563Y72344D01*
Y71345D01*
X87063Y70845D01*
X89562Y67846D02*
X89062Y68846D01*
X88063Y69845D01*
X87063D01*
X86563Y69345D01*
Y68346D01*
X87063Y67846D01*
X87563D01*
X88063Y68346D01*
Y69845D01*
X45214Y24894D02*
X44714Y25394D01*
X43714D01*
X43215Y24894D01*
Y22895D01*
X43714Y22395D01*
X44714D01*
X45214Y22895D01*
X48213Y22395D02*
X46214D01*
X48213Y24394D01*
Y24894D01*
X47713Y25394D01*
X46713D01*
X46214Y24894D01*
X42776Y68417D02*
X42277Y67917D01*
Y66918D01*
X42776Y66418D01*
X44776D01*
X45276Y66918D01*
Y67917D01*
X44776Y68417D01*
X45276Y69417D02*
Y70416D01*
Y69917D01*
X42277D01*
X42776Y69417D01*
X78771Y57818D02*
X78271Y58318D01*
X77271D01*
X76772Y57818D01*
Y55819D01*
X77271Y55319D01*
X78271D01*
X78771Y55819D01*
X81770Y58318D02*
X79771D01*
Y56819D01*
X80770Y57319D01*
X81270D01*
X81770Y56819D01*
Y55819D01*
X81270Y55319D01*
X80270D01*
X79771Y55819D01*
X91549Y40095D02*
X92049Y39595D01*
X93049D01*
X93549Y40095D01*
Y42094D01*
X93049Y42594D01*
X92049D01*
X91549Y42094D01*
X90549Y40095D02*
X90050Y39595D01*
X89050D01*
X88550Y40095D01*
Y40595D01*
X89050Y41095D01*
X89550D01*
X89050D01*
X88550Y41594D01*
Y42094D01*
X89050Y42594D01*
X90050D01*
X90549Y42094D01*
D14*
X103347Y100394D02*
Y106392D01*
X106345D01*
X107345Y105392D01*
Y103393D01*
X106345Y102393D01*
X103347D01*
X113343Y100394D02*
X109344D01*
X113343Y104392D01*
Y105392D01*
X112344Y106392D01*
X110344D01*
X109344Y105392D01*
X18701Y100394D02*
Y106392D01*
X21700D01*
X22700Y105392D01*
Y103393D01*
X21700Y102393D01*
X18701D01*
X24699Y100394D02*
X26698D01*
X25699D01*
Y106392D01*
X24699Y105392D01*
D15*
X92816Y35452D02*
D03*
M02*
