G04*
G04 #@! TF.GenerationSoftware,Altium Limited,Altium Designer,18.1.7 (191)*
G04*
G04 Layer_Color=16711935*
%FSLAX25Y25*%
%MOIN*%
G70*
G01*
G75*
%ADD40R,0.06706X0.06706*%
%ADD41C,0.06706*%
%ADD42C,0.05800*%
%ADD43C,0.03556*%
%ADD44C,0.02769*%
D40*
X119516Y102500D02*
D03*
X11516Y12000D02*
D03*
D41*
X119516Y92500D02*
D03*
Y72500D02*
D03*
Y62500D02*
D03*
Y52500D02*
D03*
Y42500D02*
D03*
Y32500D02*
D03*
Y22500D02*
D03*
Y12500D02*
D03*
Y82500D02*
D03*
X11516Y22000D02*
D03*
Y42000D02*
D03*
Y52000D02*
D03*
Y62000D02*
D03*
Y72000D02*
D03*
Y82000D02*
D03*
Y92000D02*
D03*
Y102000D02*
D03*
Y32000D02*
D03*
D42*
X57228Y22890D02*
D03*
X51496Y42594D02*
D03*
X23622Y54921D02*
D03*
X30302Y62008D02*
D03*
X29528Y76772D02*
D03*
D43*
X70020Y68727D02*
D03*
X101880Y85319D02*
D03*
X43307Y56102D02*
D03*
X85630Y40354D02*
D03*
X107283Y35453D02*
D03*
X102362Y48228D02*
D03*
X78942Y66155D02*
D03*
X88583Y51181D02*
D03*
X73079Y39370D02*
D03*
D44*
X60039Y51181D02*
D03*
X56102D02*
D03*
X60039Y55118D02*
D03*
X56102D02*
D03*
X60039Y59055D02*
D03*
X56102D02*
D03*
X60039Y62992D02*
D03*
X56102D02*
D03*
X60039Y66929D02*
D03*
X56102D02*
D03*
M02*
