G04*
G04 #@! TF.GenerationSoftware,Altium Limited,Altium Designer,18.1.7 (191)*
G04*
G04 Layer_Physical_Order=1*
G04 Layer_Color=255*
%FSLAX25Y25*%
%MOIN*%
G70*
G01*
G75*
%ADD12C,0.00787*%
%ADD14C,0.01000*%
%ADD16R,0.07087X0.18898*%
%ADD17R,0.03347X0.00984*%
%ADD18R,0.02165X0.01968*%
%ADD19R,0.01260X0.02047*%
%ADD20R,0.01772X0.01772*%
%ADD21R,0.06693X0.03740*%
%ADD22R,0.01772X0.01772*%
%ADD23R,0.06299X0.11024*%
%ADD24R,0.03347X0.03347*%
%ADD25R,0.03740X0.06693*%
%ADD26R,0.02441X0.02441*%
%ADD27R,0.03543X0.03150*%
%ADD45R,0.05906X0.05906*%
%ADD46C,0.05906*%
%ADD47C,0.05000*%
%ADD48C,0.02756*%
%ADD49C,0.01968*%
G36*
X120530Y113973D02*
X122008Y113577D01*
X123422Y112992D01*
X124747Y112227D01*
X125961Y111295D01*
X127043Y110213D01*
X127975Y108999D01*
X128740Y107674D01*
X129325Y106260D01*
X129721Y104782D01*
X129921Y103265D01*
Y102500D01*
Y11811D01*
Y11037D01*
X129719Y9502D01*
X129318Y8006D01*
X128726Y6576D01*
X127952Y5235D01*
X127009Y4007D01*
X125915Y2912D01*
X124686Y1969D01*
X123345Y1195D01*
X121915Y603D01*
X120419Y202D01*
X118884Y0D01*
X11037D01*
X9502Y202D01*
X8006Y603D01*
X6576Y1195D01*
X5235Y1969D01*
X4007Y2912D01*
X2912Y4007D01*
X1969Y5235D01*
X1195Y6576D01*
X603Y8006D01*
X202Y9502D01*
X0Y11037D01*
Y11811D01*
Y102500D01*
Y103265D01*
X200Y104782D01*
X596Y106260D01*
X1181Y107674D01*
X1946Y108999D01*
X2878Y110213D01*
X3960Y111295D01*
X5174Y112227D01*
X6499Y112992D01*
X7913Y113577D01*
X9391Y113973D01*
X10908Y114173D01*
X119013D01*
X120530Y113973D01*
D02*
G37*
%LPC*%
G36*
X12016Y105921D02*
Y102500D01*
X15437D01*
X15367Y103032D01*
X14968Y103993D01*
X14335Y104819D01*
X13509Y105453D01*
X12548Y105851D01*
X12016Y105921D01*
D02*
G37*
G36*
X11016D02*
X10484Y105851D01*
X9522Y105453D01*
X8697Y104819D01*
X8063Y103993D01*
X7665Y103032D01*
X7595Y102500D01*
X11016D01*
Y105921D01*
D02*
G37*
G36*
X123468Y106453D02*
X115563D01*
Y104029D01*
X111221D01*
X110635Y103913D01*
X110139Y103581D01*
X91748Y85191D01*
X80394D01*
X79808Y85074D01*
X79312Y84743D01*
X63975Y69406D01*
X62614D01*
Y69504D01*
X58571D01*
Y59055D01*
Y48606D01*
X62614D01*
Y48705D01*
X63116D01*
Y44221D01*
X61677D01*
Y44686D01*
X54756D01*
X54756Y44686D01*
Y44686D01*
X54272Y44725D01*
X53992Y45090D01*
X53261Y45652D01*
X52410Y46004D01*
X51496Y46124D01*
X50582Y46004D01*
X49884Y45715D01*
X49601Y46139D01*
X52167Y48705D01*
X53528D01*
Y48606D01*
X57571D01*
Y59055D01*
Y69504D01*
X53528D01*
Y69406D01*
X51996D01*
Y67913D01*
X50996D01*
Y69406D01*
X48823D01*
Y67474D01*
X47345D01*
X46805Y68014D01*
Y74904D01*
X46689Y75489D01*
X46357Y75986D01*
X29261Y93081D01*
X28765Y93413D01*
X28180Y93529D01*
X15161D01*
X14968Y93993D01*
X14335Y94819D01*
X13509Y95453D01*
X12548Y95851D01*
X11516Y95987D01*
X10484Y95851D01*
X9522Y95453D01*
X8697Y94819D01*
X8063Y93993D01*
X7665Y93032D01*
X7529Y92000D01*
X7665Y90968D01*
X8063Y90007D01*
X8697Y89181D01*
X9522Y88547D01*
X10484Y88149D01*
X11516Y88013D01*
X12548Y88149D01*
X13509Y88547D01*
X14335Y89181D01*
X14968Y90007D01*
X15161Y90471D01*
X27546D01*
X41387Y76630D01*
X41180Y76130D01*
X33478D01*
X33038Y76623D01*
X33058Y76772D01*
X32937Y77685D01*
X32585Y78537D01*
X32024Y79268D01*
X31293Y79829D01*
X30441Y80182D01*
X29528Y80302D01*
X28614Y80182D01*
X27762Y79829D01*
X27031Y79268D01*
X26470Y78537D01*
X26118Y77685D01*
X25997Y76772D01*
X26095Y76031D01*
X25621Y75798D01*
X18414Y83005D01*
X17953Y83313D01*
X17410Y83421D01*
X15206D01*
X14968Y83993D01*
X14335Y84819D01*
X13509Y85453D01*
X12548Y85851D01*
X11516Y85987D01*
X10484Y85851D01*
X9522Y85453D01*
X8697Y84819D01*
X8063Y83993D01*
X7665Y83032D01*
X7529Y82000D01*
X7665Y80968D01*
X8063Y80007D01*
X8697Y79181D01*
X9522Y78547D01*
X10484Y78149D01*
X11516Y78013D01*
X12548Y78149D01*
X13509Y78547D01*
X14335Y79181D01*
X14968Y80007D01*
X15206Y80579D01*
X16821D01*
X30712Y66688D01*
X31173Y66380D01*
X31716Y66272D01*
X41697D01*
X43497Y64472D01*
X43306Y64010D01*
X41748D01*
Y65106D01*
X37902D01*
Y62236D01*
X36902D01*
Y65106D01*
X33055D01*
Y64937D01*
X32555Y64691D01*
X32067Y65065D01*
X31215Y65418D01*
X30302Y65538D01*
X29388Y65418D01*
X28537Y65065D01*
X27806Y64504D01*
X27244Y63773D01*
X27144Y63529D01*
X15161D01*
X14968Y63993D01*
X14335Y64819D01*
X13509Y65453D01*
X12548Y65851D01*
X11516Y65987D01*
X10484Y65851D01*
X9522Y65453D01*
X8697Y64819D01*
X8063Y63993D01*
X7665Y63032D01*
X7529Y62000D01*
X7665Y60968D01*
X8063Y60007D01*
X8697Y59181D01*
X9522Y58547D01*
X10484Y58149D01*
X11516Y58013D01*
X12548Y58149D01*
X13509Y58547D01*
X14335Y59181D01*
X14968Y60007D01*
X15161Y60471D01*
X26355D01*
X26547Y60009D01*
X24771Y58233D01*
X24536Y58331D01*
X23622Y58451D01*
X22708Y58331D01*
X21857Y57978D01*
X21126Y57418D01*
X20565Y56686D01*
X20212Y55835D01*
X20092Y54921D01*
X20212Y54008D01*
X20565Y53156D01*
X21126Y52425D01*
X21857Y51864D01*
X22708Y51511D01*
X23622Y51391D01*
X24536Y51511D01*
X25387Y51864D01*
X26118Y52425D01*
X26679Y53156D01*
X27032Y54008D01*
X27152Y54921D01*
X27032Y55835D01*
X26934Y56071D01*
X29453Y58589D01*
X29842Y58538D01*
X33342Y55038D01*
Y54029D01*
X33340D01*
X32755Y53913D01*
X32259Y53581D01*
X22207Y43529D01*
X15161D01*
X14968Y43993D01*
X14335Y44819D01*
X13509Y45453D01*
X12548Y45851D01*
X11516Y45987D01*
X10484Y45851D01*
X9522Y45453D01*
X8697Y44819D01*
X8063Y43993D01*
X7665Y43032D01*
X7529Y42000D01*
X7665Y40968D01*
X8063Y40007D01*
X8697Y39181D01*
X9522Y38547D01*
X10484Y38149D01*
X11516Y38013D01*
X12548Y38149D01*
X13509Y38547D01*
X14335Y39181D01*
X14968Y40007D01*
X15161Y40471D01*
X17170D01*
X17361Y40009D01*
X13012Y35659D01*
X12548Y35851D01*
X11516Y35987D01*
X10484Y35851D01*
X9522Y35453D01*
X8697Y34819D01*
X8063Y33993D01*
X7665Y33032D01*
X7529Y32000D01*
X7665Y30968D01*
X8063Y30007D01*
X8697Y29181D01*
X9522Y28547D01*
X10484Y28149D01*
X11516Y28013D01*
X12548Y28149D01*
X13509Y28547D01*
X14335Y29181D01*
X14968Y30007D01*
X15367Y30968D01*
X15503Y32000D01*
X15367Y33032D01*
X15175Y33496D01*
X20149Y38471D01*
X23669D01*
X24254Y38587D01*
X24750Y38919D01*
X34802Y48971D01*
X35670D01*
X35862Y48509D01*
X13012Y25659D01*
X12548Y25851D01*
X11516Y25987D01*
X10484Y25851D01*
X9522Y25453D01*
X8697Y24819D01*
X8063Y23993D01*
X7665Y23032D01*
X7529Y22000D01*
X7665Y20968D01*
X8063Y20007D01*
X8697Y19181D01*
X9522Y18547D01*
X10484Y18149D01*
X11516Y18013D01*
X12548Y18149D01*
X13509Y18547D01*
X14335Y19181D01*
X14968Y20007D01*
X15367Y20968D01*
X15503Y22000D01*
X15367Y23032D01*
X15175Y23496D01*
X38649Y46971D01*
X45400D01*
X45606Y46588D01*
X45622Y46485D01*
X37200Y38063D01*
X36868Y37567D01*
X36752Y36982D01*
Y31210D01*
X19071Y13529D01*
X15469D01*
Y15953D01*
X7563D01*
Y8047D01*
X15469D01*
Y10471D01*
X19705D01*
X20290Y10587D01*
X20786Y10919D01*
X39363Y29495D01*
X39694Y29991D01*
X39811Y30577D01*
Y36349D01*
X41003Y37541D01*
X41465Y37349D01*
Y32395D01*
X45114D01*
Y38407D01*
X42522D01*
X42331Y38869D01*
X47951Y44489D01*
X48375Y44206D01*
X48086Y43508D01*
X47966Y42594D01*
X48086Y41680D01*
X48439Y40829D01*
X49000Y40098D01*
X49731Y39537D01*
X50582Y39184D01*
X51496Y39064D01*
X52410Y39184D01*
X53261Y39537D01*
X53992Y40098D01*
X54383Y40607D01*
X54756Y40914D01*
X61677D01*
Y41379D01*
X63116D01*
Y20539D01*
X63233Y19954D01*
X63564Y19458D01*
X71604Y11419D01*
X72100Y11087D01*
X72685Y10971D01*
X115871D01*
X116063Y10507D01*
X116697Y9681D01*
X117522Y9047D01*
X118484Y8649D01*
X119516Y8513D01*
X120548Y8649D01*
X121509Y9047D01*
X122335Y9681D01*
X122968Y10507D01*
X123367Y11468D01*
X123503Y12500D01*
X123367Y13532D01*
X122968Y14493D01*
X122335Y15319D01*
X121509Y15953D01*
X120548Y16351D01*
X119516Y16487D01*
X118484Y16351D01*
X117522Y15953D01*
X116697Y15319D01*
X116063Y14493D01*
X115871Y14029D01*
X73318D01*
X66175Y21173D01*
Y43532D01*
Y46260D01*
Y48705D01*
X66762D01*
Y46260D01*
Y34449D01*
X66878Y33863D01*
X67210Y33367D01*
X79159Y21419D01*
X79655Y21087D01*
X80240Y20971D01*
X115871D01*
X116063Y20507D01*
X116697Y19681D01*
X117522Y19047D01*
X118484Y18649D01*
X119516Y18513D01*
X120548Y18649D01*
X121509Y19047D01*
X122335Y19681D01*
X122968Y20507D01*
X123367Y21468D01*
X123503Y22500D01*
X123367Y23532D01*
X122968Y24493D01*
X122335Y25319D01*
X121509Y25953D01*
X120548Y26351D01*
X119516Y26487D01*
X118484Y26351D01*
X117522Y25953D01*
X116697Y25319D01*
X116063Y24493D01*
X115871Y24029D01*
X80874D01*
X69821Y35082D01*
Y44045D01*
X71193D01*
Y42925D01*
X74964D01*
Y43689D01*
Y46835D01*
X76003D01*
X78864Y43973D01*
Y31895D01*
X78981Y31310D01*
X79312Y30814D01*
X84399Y25727D01*
X84895Y25396D01*
X85480Y25279D01*
X113824D01*
X114410Y25396D01*
X114906Y25727D01*
X118020Y28841D01*
X118484Y28649D01*
X119516Y28513D01*
X120548Y28649D01*
X121509Y29047D01*
X122335Y29681D01*
X122968Y30507D01*
X123367Y31468D01*
X123503Y32500D01*
X123367Y33532D01*
X122968Y34493D01*
X122335Y35319D01*
X121509Y35953D01*
X120548Y36351D01*
X119516Y36487D01*
X118484Y36351D01*
X117522Y35953D01*
X116697Y35319D01*
X116063Y34493D01*
X115665Y33532D01*
X115529Y32500D01*
X115665Y31468D01*
X115857Y31004D01*
X113191Y28338D01*
X86114D01*
X81923Y32528D01*
Y44606D01*
X81807Y45192D01*
X81475Y45688D01*
X76689Y50474D01*
Y53927D01*
X76730Y54134D01*
X77090Y54573D01*
X81972D01*
Y51681D01*
X84842D01*
Y51181D01*
X85343D01*
Y46835D01*
X87713D01*
Y48536D01*
X88083Y48839D01*
Y51181D01*
Y53523D01*
X87713Y53827D01*
Y54573D01*
X90114D01*
X93685Y51003D01*
Y47819D01*
X93685D01*
X93801Y47539D01*
X92577Y46315D01*
X91087D01*
Y42268D01*
X91187D01*
Y40909D01*
X89730Y39452D01*
X89097Y39526D01*
X88975Y39707D01*
X87986Y40696D01*
X87870Y41282D01*
X87545Y41768D01*
X87813Y42268D01*
X88279D01*
Y43791D01*
X87150D01*
Y42800D01*
X86650Y42533D01*
X86558Y42594D01*
X85630Y42779D01*
X84702Y42594D01*
X83915Y42069D01*
X83390Y41282D01*
X83205Y40354D01*
X83390Y39426D01*
X83915Y38640D01*
X84702Y38114D01*
X85220Y38011D01*
Y32779D01*
X90567D01*
Y35963D01*
X93798Y39194D01*
X94130Y39690D01*
X94246Y40275D01*
Y42268D01*
X94346D01*
Y42699D01*
X107032D01*
Y42455D01*
X109310D01*
X110346Y41419D01*
X110843Y41087D01*
X111428Y40971D01*
X115871D01*
X116063Y40507D01*
X116697Y39681D01*
X117522Y39047D01*
X118484Y38649D01*
X119516Y38513D01*
X120548Y38649D01*
X121509Y39047D01*
X122335Y39681D01*
X122968Y40507D01*
X123367Y41468D01*
X123503Y42500D01*
X123367Y43532D01*
X122968Y44493D01*
X122335Y45319D01*
X121509Y45953D01*
X120548Y46351D01*
X119516Y46487D01*
X118484Y46351D01*
X117522Y45953D01*
X116697Y45319D01*
X116063Y44493D01*
X115871Y44029D01*
X112061D01*
X111472Y44618D01*
Y46077D01*
Y47798D01*
X109252D01*
X107032D01*
Y45758D01*
X103845D01*
X103693Y46258D01*
X104077Y46514D01*
X104602Y47300D01*
X104787Y48228D01*
X104602Y49156D01*
X104467Y49358D01*
X105412Y50303D01*
X105744Y50799D01*
X105860Y51385D01*
Y51559D01*
X107102D01*
Y56345D01*
X113508D01*
X115857Y53996D01*
X115665Y53532D01*
X115662Y53509D01*
X115378Y53085D01*
X115262Y52500D01*
X115378Y51915D01*
X115662Y51491D01*
X115665Y51468D01*
X116063Y50507D01*
X116697Y49681D01*
X117522Y49047D01*
X118484Y48649D01*
X119516Y48513D01*
X120548Y48649D01*
X121509Y49047D01*
X122335Y49681D01*
X122968Y50507D01*
X123367Y51468D01*
X123503Y52500D01*
X123367Y53532D01*
X122968Y54493D01*
X122335Y55319D01*
X121509Y55953D01*
X120548Y56351D01*
X119516Y56487D01*
X118484Y56351D01*
X118020Y56159D01*
X115223Y58956D01*
X114727Y59287D01*
X114142Y59403D01*
X99228D01*
Y60449D01*
X93685D01*
Y59600D01*
X67319D01*
Y60479D01*
X86697D01*
X87282Y60595D01*
X87778Y60926D01*
X92797Y65945D01*
X94406D01*
Y66301D01*
X114847D01*
X115432Y66418D01*
X115928Y66749D01*
X118020Y68841D01*
X118484Y68649D01*
X119516Y68513D01*
X120548Y68649D01*
X121509Y69047D01*
X122335Y69681D01*
X122968Y70507D01*
X123367Y71468D01*
X123503Y72500D01*
X123367Y73532D01*
X122968Y74493D01*
X122335Y75319D01*
X121509Y75953D01*
X120548Y76351D01*
X119516Y76487D01*
X118484Y76351D01*
X117522Y75953D01*
X116697Y75319D01*
X116063Y74493D01*
X115665Y73532D01*
X115529Y72500D01*
X115665Y71468D01*
X115857Y71004D01*
X114213Y69360D01*
X94406D01*
Y72866D01*
X90634D01*
Y72844D01*
X86563D01*
Y73535D01*
X82122D01*
Y72497D01*
X81217D01*
Y72854D01*
X77710D01*
Y73579D01*
X82326Y78195D01*
X116740D01*
X117325Y78311D01*
X117822Y78643D01*
X118020Y78841D01*
X118484Y78649D01*
X119516Y78513D01*
X120548Y78649D01*
X121509Y79047D01*
X122335Y79681D01*
X122968Y80507D01*
X123367Y81468D01*
X123503Y82500D01*
X123367Y83532D01*
X122968Y84493D01*
X122335Y85319D01*
X121509Y85953D01*
X120548Y86351D01*
X119516Y86487D01*
X118484Y86351D01*
X117522Y85953D01*
X116697Y85319D01*
X116063Y84493D01*
X115665Y83532D01*
X115529Y82500D01*
X115627Y81754D01*
X115255Y81254D01*
X81693D01*
X81108Y81137D01*
X80611Y80806D01*
X75100Y75294D01*
X74768Y74798D01*
X74652Y74213D01*
Y72854D01*
X74295D01*
Y69781D01*
X72883Y68369D01*
X72422Y68615D01*
X72445Y68727D01*
X72260Y69655D01*
X71734Y70442D01*
X70948Y70967D01*
X70562Y71044D01*
X70417Y71522D01*
X81027Y82132D01*
X92382D01*
X92967Y82249D01*
X93463Y82580D01*
X111854Y100971D01*
X115563D01*
Y98547D01*
X123468D01*
Y106453D01*
D02*
G37*
G36*
X15437Y101500D02*
X12016D01*
Y98079D01*
X12548Y98149D01*
X13509Y98547D01*
X14335Y99181D01*
X14968Y100007D01*
X15367Y100968D01*
X15437Y101500D01*
D02*
G37*
G36*
X11016D02*
X7595D01*
X7665Y100968D01*
X8063Y100007D01*
X8697Y99181D01*
X9522Y98547D01*
X10484Y98149D01*
X11016Y98079D01*
Y101500D01*
D02*
G37*
G36*
X119516Y96487D02*
X118484Y96351D01*
X117522Y95953D01*
X116697Y95319D01*
X116063Y94493D01*
X115665Y93532D01*
X115529Y92500D01*
X115665Y91468D01*
X116063Y90507D01*
X116697Y89681D01*
X117522Y89047D01*
X118484Y88649D01*
X119516Y88513D01*
X120548Y88649D01*
X121509Y89047D01*
X122335Y89681D01*
X122968Y90507D01*
X123367Y91468D01*
X123503Y92500D01*
X123367Y93532D01*
X122968Y94493D01*
X122335Y95319D01*
X121509Y95953D01*
X120548Y96351D01*
X119516Y96487D01*
D02*
G37*
G36*
X102380Y87644D02*
Y85819D01*
X104206D01*
X104120Y86247D01*
X103595Y87034D01*
X102808Y87559D01*
X102380Y87644D01*
D02*
G37*
G36*
X101380D02*
X100953Y87559D01*
X100166Y87034D01*
X99641Y86247D01*
X99555Y85819D01*
X101380D01*
Y87644D01*
D02*
G37*
G36*
X104206Y84819D02*
X102380D01*
Y82994D01*
X102808Y83079D01*
X103595Y83605D01*
X104120Y84391D01*
X104206Y84819D01*
D02*
G37*
G36*
X101380D02*
X99555D01*
X99641Y84391D01*
X100166Y83605D01*
X100953Y83079D01*
X101380Y82994D01*
Y84819D01*
D02*
G37*
G36*
X12016Y75921D02*
Y72500D01*
X15437D01*
X15367Y73032D01*
X14968Y73993D01*
X14335Y74819D01*
X13509Y75453D01*
X12548Y75851D01*
X12016Y75921D01*
D02*
G37*
G36*
X11016D02*
X10484Y75851D01*
X9522Y75453D01*
X8697Y74819D01*
X8063Y73993D01*
X7665Y73032D01*
X7595Y72500D01*
X11016D01*
Y75921D01*
D02*
G37*
G36*
X15437Y71500D02*
X12016D01*
Y68079D01*
X12548Y68149D01*
X13509Y68547D01*
X14335Y69181D01*
X14968Y70007D01*
X15367Y70968D01*
X15437Y71500D01*
D02*
G37*
G36*
X11016D02*
X7595D01*
X7665Y70968D01*
X8063Y70007D01*
X8697Y69181D01*
X9522Y68547D01*
X10484Y68149D01*
X11016Y68079D01*
Y71500D01*
D02*
G37*
G36*
X120016Y66421D02*
Y63000D01*
X123437D01*
X123367Y63532D01*
X122968Y64493D01*
X122335Y65319D01*
X121509Y65953D01*
X120548Y66351D01*
X120016Y66421D01*
D02*
G37*
G36*
X119016D02*
X118484Y66351D01*
X117522Y65953D01*
X116697Y65319D01*
X116063Y64493D01*
X115665Y63532D01*
X115595Y63000D01*
X119016D01*
Y66421D01*
D02*
G37*
G36*
X123437Y62000D02*
X120016D01*
Y58579D01*
X120548Y58649D01*
X121509Y59047D01*
X122335Y59681D01*
X122968Y60507D01*
X123367Y61468D01*
X123437Y62000D01*
D02*
G37*
G36*
X119016D02*
X115595D01*
X115665Y61468D01*
X116063Y60507D01*
X116697Y59681D01*
X117522Y59047D01*
X118484Y58649D01*
X119016Y58579D01*
Y62000D01*
D02*
G37*
G36*
X89083Y53506D02*
Y51681D01*
X90908D01*
X90823Y52109D01*
X90297Y52895D01*
X89511Y53421D01*
X89083Y53506D01*
D02*
G37*
G36*
X90908Y50681D02*
X89083D01*
Y48856D01*
X89511Y48941D01*
X90297Y49467D01*
X90823Y50253D01*
X90908Y50681D01*
D02*
G37*
G36*
X111472Y50518D02*
X109752D01*
Y48798D01*
X111472D01*
Y50518D01*
D02*
G37*
G36*
X108752D02*
X107032D01*
Y48798D01*
X108752D01*
Y50518D01*
D02*
G37*
G36*
X11516Y55987D02*
X10484Y55851D01*
X9522Y55453D01*
X8697Y54819D01*
X8063Y53993D01*
X7665Y53032D01*
X7529Y52000D01*
X7665Y50968D01*
X8063Y50007D01*
X8697Y49181D01*
X9522Y48547D01*
X10484Y48149D01*
X11516Y48013D01*
X12548Y48149D01*
X13509Y48547D01*
X14335Y49181D01*
X14968Y50007D01*
X15367Y50968D01*
X15503Y52000D01*
X15367Y53032D01*
X14968Y53993D01*
X14335Y54819D01*
X13509Y55453D01*
X12548Y55851D01*
X11516Y55987D01*
D02*
G37*
G36*
X84342Y50681D02*
X81972D01*
Y46835D01*
X84342D01*
Y50681D01*
D02*
G37*
G36*
X90409Y46315D02*
X89280D01*
Y44791D01*
X90409D01*
Y46315D01*
D02*
G37*
G36*
X88279D02*
X87150D01*
Y44791D01*
X88279D01*
Y46315D01*
D02*
G37*
G36*
X90409Y43791D02*
X89280D01*
Y42268D01*
X90409D01*
Y43791D01*
D02*
G37*
G36*
X74964Y41925D02*
X71193D01*
Y40828D01*
X70839Y40298D01*
X70754Y39870D01*
X75404D01*
X75319Y40298D01*
X74964Y40828D01*
Y41925D01*
D02*
G37*
G36*
X75404Y38870D02*
X73579D01*
Y37045D01*
X74007Y37130D01*
X74793Y37656D01*
X75319Y38442D01*
X75404Y38870D01*
D02*
G37*
G36*
X72579D02*
X70754D01*
X70839Y38442D01*
X71364Y37656D01*
X72151Y37130D01*
X72579Y37045D01*
Y38870D01*
D02*
G37*
G36*
X103756Y38126D02*
X98409D01*
Y32779D01*
X103756D01*
Y33923D01*
X105445D01*
X105569Y33738D01*
X106356Y33213D01*
X107283Y33028D01*
X108211Y33213D01*
X108998Y33738D01*
X109523Y34525D01*
X109708Y35453D01*
X109523Y36380D01*
X108998Y37167D01*
X108211Y37693D01*
X107283Y37877D01*
X106356Y37693D01*
X105569Y37167D01*
X105445Y36982D01*
X103756D01*
Y38126D01*
D02*
G37*
G36*
X49764Y38407D02*
X46114D01*
Y32395D01*
X49764D01*
Y38407D01*
D02*
G37*
G36*
Y31395D02*
X46114D01*
Y25383D01*
X49764D01*
Y31395D01*
D02*
G37*
G36*
X45114D02*
X41465D01*
Y25383D01*
X45114D01*
Y31395D01*
D02*
G37*
G36*
X61378Y38407D02*
X53079D01*
Y25383D01*
X54164D01*
X54386Y24935D01*
X54171Y24655D01*
X53818Y23804D01*
X53698Y22890D01*
X53818Y21976D01*
X54171Y21125D01*
X54732Y20394D01*
X55463Y19833D01*
X56315Y19480D01*
X57228Y19360D01*
X58142Y19480D01*
X58993Y19833D01*
X59725Y20394D01*
X60286Y21125D01*
X60638Y21976D01*
X60759Y22890D01*
X60638Y23804D01*
X60286Y24655D01*
X60071Y24935D01*
X60292Y25383D01*
X61378D01*
Y38407D01*
D02*
G37*
%LPD*%
G36*
X43746Y74271D02*
Y68887D01*
X43519Y68792D01*
X43246Y68727D01*
X42829Y69006D01*
X42285Y69114D01*
X32305D01*
X28554Y72865D01*
X28787Y73339D01*
X29528Y73242D01*
X30441Y73362D01*
X30677Y73459D01*
X31958Y72178D01*
X32454Y71847D01*
X33039Y71730D01*
X33055D01*
Y70390D01*
X41748D01*
Y75562D01*
X42248Y75769D01*
X43746Y74271D01*
D02*
G37*
G36*
X90634Y68108D02*
X86063Y63537D01*
X80205D01*
X80053Y64037D01*
X80657Y64441D01*
X81182Y65227D01*
X81367Y66155D01*
X81374Y66163D01*
X82122D01*
Y65472D01*
X83842D01*
Y67693D01*
X84342D01*
Y68193D01*
X86563D01*
Y69786D01*
X90634D01*
Y68108D01*
D02*
G37*
G36*
X101559Y51559D02*
X101689D01*
X101880Y51097D01*
X101281Y50497D01*
X101122Y50259D01*
X100648Y49943D01*
X100122Y49156D01*
X99938Y48228D01*
X100122Y47300D01*
X100648Y46514D01*
X101031Y46258D01*
X100880Y45758D01*
X96999D01*
X96808Y46220D01*
X97538Y46950D01*
X97870Y47446D01*
X97944Y47819D01*
X99228D01*
Y52969D01*
X96045D01*
X94176Y54837D01*
X94367Y55299D01*
X99228D01*
Y56345D01*
X101559D01*
Y51559D01*
D02*
G37*
%LPC*%
G36*
X86563Y67193D02*
X84842D01*
Y65472D01*
X86563D01*
Y67193D01*
D02*
G37*
%LPD*%
D12*
X63914Y42800D02*
X64646Y43532D01*
X59791Y42800D02*
X63914D01*
X38969Y55709D02*
X43020D01*
X64592Y46206D02*
X64646Y46260D01*
X38378Y55118D02*
X38969Y55709D01*
X49962Y64051D02*
X51421D01*
X49962Y64051D02*
X49962Y64051D01*
X45927Y64051D02*
X49962D01*
X42285Y67693D02*
X45927Y64051D01*
X17410Y82000D02*
X31716Y67693D01*
X42285D01*
X51421Y64051D02*
X51496Y63976D01*
X11516Y82000D02*
X17410D01*
D14*
X57228Y22890D02*
Y31895D01*
Y22142D02*
Y22890D01*
X64646Y20539D02*
Y43532D01*
Y20539D02*
X72685Y12500D01*
X56436Y42594D02*
X56642Y42800D01*
X51496Y42594D02*
X56436D01*
X64646Y43532D02*
Y46260D01*
X76181Y74213D02*
X81693Y79724D01*
X76181Y70968D02*
Y74213D01*
X81693Y79724D02*
X116740D01*
X67238Y65945D02*
X70020Y68727D01*
X64646Y65945D02*
X67238D01*
X61024D02*
X64646D01*
X30302Y61601D02*
Y62008D01*
X23622Y54921D02*
X30302Y61601D01*
X22840Y42000D02*
X33340Y52500D01*
X34169Y50500D02*
X44721D01*
X23669Y40000D02*
X34169Y50500D01*
X11516Y42000D02*
X22840D01*
X19516Y40000D02*
X23669D01*
X33340Y52500D02*
X43861D01*
X38016Y48500D02*
X45549D01*
X11516Y22000D02*
X38016Y48500D01*
X43861Y52500D02*
X44323Y52962D01*
X44721Y50500D02*
X46323Y52102D01*
X45549Y48500D02*
X49215Y52165D01*
X38281Y36982D02*
X51496Y50197D01*
X38281Y30577D02*
Y36982D01*
X44323Y52967D02*
X47427Y56071D01*
X44323Y52962D02*
Y52967D01*
X43307Y56102D02*
X45276Y58071D01*
X41369Y58866D02*
X42543Y60039D01*
X37938Y58866D02*
X41369D01*
X42543Y60039D02*
X51496D01*
X64646Y58071D02*
X96260D01*
X64646Y54134D02*
X75201D01*
X64646Y62008D02*
X86697D01*
X58217Y61322D02*
Y65106D01*
Y61322D02*
X59500Y60039D01*
X64646Y67913D02*
X80394Y83661D01*
X11516Y62000D02*
X30294D01*
X30302Y62008D01*
Y60242D02*
X35425Y55118D01*
X64646Y46260D02*
Y50197D01*
X11516Y12000D02*
X19705D01*
X38281Y30577D01*
X49215Y52165D02*
X51496D01*
X46323Y52139D02*
X47591Y53407D01*
X46323Y52102D02*
Y52139D01*
X47628Y53407D02*
X48323Y54102D01*
X47591Y53407D02*
X47628D01*
X47427Y56071D02*
X47463D01*
X48438Y54134D02*
X51496D01*
X48323Y54102D02*
X48438D01*
X11516Y32000D02*
X19516Y40000D01*
X47463Y56102D02*
X51496D01*
X45276Y58071D02*
X51496D01*
X35795Y56724D02*
X37938Y58866D01*
X45533Y62008D02*
X51496D01*
X45502Y62039D02*
X45533Y62008D01*
X44697Y62039D02*
X45502D01*
X44256Y62480D02*
X44697Y62039D01*
X40216Y62480D02*
X44256D01*
X39743Y62008D02*
X40216Y62480D01*
X37630Y62008D02*
X39743D01*
X37402Y62236D02*
X37630Y62008D01*
X35425Y55118D02*
X35795Y55488D01*
Y56724D01*
X33039Y73260D02*
X37402D01*
X29528Y76772D02*
X33039Y73260D01*
X28180Y92000D02*
X45276Y74904D01*
X11516Y92000D02*
X28180D01*
X45276Y67381D02*
Y74904D01*
Y67381D02*
X46712Y65945D01*
X49178D02*
X49178Y65945D01*
X51496D01*
X46712Y65945D02*
X49178D01*
X55409Y67913D02*
X58217Y65106D01*
X59500Y60039D02*
X64646D01*
X58217Y65106D02*
X60039Y66929D01*
X61024Y65945D01*
X93101Y44676D02*
X93549Y44228D01*
X72685Y12500D02*
X119516D01*
X87894Y35453D02*
Y38626D01*
X86165Y40354D02*
X87894Y38626D01*
X85630Y40354D02*
X86165D01*
X68291Y34449D02*
X80240Y22500D01*
X101083Y35453D02*
X107283D01*
X107379D01*
X92716Y40275D02*
Y44291D01*
X87894Y35453D02*
X92716Y40275D01*
X68291Y46260D02*
Y52134D01*
Y34449D02*
Y46260D01*
X68976Y45575D01*
X73079D01*
X64646Y52165D02*
X68291D01*
X80240Y22500D02*
X119516D01*
X113824Y26809D02*
X119516Y32500D01*
X85480Y26809D02*
X113824D01*
X80394Y31895D02*
X85480Y26809D01*
X80394Y31895D02*
Y44606D01*
X73819Y51181D02*
X80394Y44606D01*
X102362Y48228D02*
Y49416D01*
X93549Y44228D02*
X108805D01*
X109252Y44676D01*
X96457Y48031D02*
Y50394D01*
X93101Y44676D02*
X96457Y48031D01*
X102362Y49416D02*
X104331Y51385D01*
Y54134D01*
X109252Y44676D02*
X111428Y42500D01*
X119516D01*
X92716Y44291D02*
X93101Y44676D01*
X114847Y67831D02*
X119516Y72500D01*
X92520Y67831D02*
X114847D01*
X78942Y66155D02*
X80480Y67693D01*
X84342D01*
X86697Y62008D02*
X92520Y67831D01*
X92185Y71315D02*
X92520Y70980D01*
X84342Y71315D02*
X92185D01*
X83996Y70968D02*
X84342Y71315D01*
X79331Y70968D02*
X83996D01*
X96457Y57874D02*
X114142D01*
X119516Y52500D01*
X90748Y56102D02*
X96457Y50394D01*
X64646Y56102D02*
X90748D01*
X88583Y51181D02*
X88583Y51181D01*
X73079Y39370D02*
Y42425D01*
X84842Y51181D02*
X88583D01*
X96260Y58071D02*
X96457Y57874D01*
X70653Y63976D02*
X76181Y69504D01*
Y70968D01*
X111221Y102500D02*
X119516D01*
X92382Y83661D02*
X111221Y102500D01*
X80394Y83661D02*
X92382D01*
X116791Y52500D02*
X119516D01*
X64646Y63976D02*
X70653D01*
X116740Y79724D02*
X119516Y82500D01*
D16*
X58071Y59055D02*
D03*
D17*
X64646Y50197D02*
D03*
Y52165D02*
D03*
Y54134D02*
D03*
Y56102D02*
D03*
Y58071D02*
D03*
Y60039D02*
D03*
Y62008D02*
D03*
Y63976D02*
D03*
Y65945D02*
D03*
Y67913D02*
D03*
X51496Y50197D02*
D03*
Y52165D02*
D03*
Y54134D02*
D03*
Y56102D02*
D03*
Y58071D02*
D03*
Y60039D02*
D03*
Y62008D02*
D03*
Y63976D02*
D03*
Y65945D02*
D03*
Y67913D02*
D03*
D18*
X35425Y55118D02*
D03*
X38378D02*
D03*
D19*
X92716Y44291D02*
D03*
X88779D02*
D03*
D20*
X73079Y45575D02*
D03*
Y42425D02*
D03*
X92520Y67831D02*
D03*
Y70980D02*
D03*
D21*
X37402Y62236D02*
D03*
Y73260D02*
D03*
D22*
X59791Y42800D02*
D03*
X56642D02*
D03*
X76181Y70968D02*
D03*
X79331D02*
D03*
D23*
X45614Y31895D02*
D03*
X57228D02*
D03*
D24*
X87894Y35453D02*
D03*
X101083D02*
D03*
D25*
X73819Y51181D02*
D03*
X84842D02*
D03*
D26*
X84342Y67693D02*
D03*
Y71315D02*
D03*
X109252Y48298D02*
D03*
Y44676D02*
D03*
D27*
X96457Y57874D02*
D03*
Y50394D02*
D03*
X104331Y54134D02*
D03*
D45*
X119516Y102500D02*
D03*
X11516Y12000D02*
D03*
D46*
X119516Y92500D02*
D03*
Y72500D02*
D03*
Y62500D02*
D03*
Y52500D02*
D03*
Y42500D02*
D03*
Y32500D02*
D03*
Y22500D02*
D03*
Y12500D02*
D03*
Y82500D02*
D03*
X11516Y22000D02*
D03*
Y42000D02*
D03*
Y52000D02*
D03*
Y62000D02*
D03*
Y72000D02*
D03*
Y82000D02*
D03*
Y92000D02*
D03*
Y102000D02*
D03*
Y32000D02*
D03*
D47*
X57228Y22890D02*
D03*
X51496Y42594D02*
D03*
X23622Y54921D02*
D03*
X30302Y62008D02*
D03*
X29528Y76772D02*
D03*
D48*
X70020Y68727D02*
D03*
X101880Y85319D02*
D03*
X43307Y56102D02*
D03*
X85630Y40354D02*
D03*
X107283Y35453D02*
D03*
X102362Y48228D02*
D03*
X78942Y66155D02*
D03*
X88583Y51181D02*
D03*
X73079Y39370D02*
D03*
D49*
X60039Y51181D02*
D03*
X56102D02*
D03*
X60039Y55118D02*
D03*
X56102D02*
D03*
X60039Y59055D02*
D03*
X56102D02*
D03*
X60039Y62992D02*
D03*
X56102D02*
D03*
X60039Y66929D02*
D03*
X56102D02*
D03*
M02*
