G04*
G04 #@! TF.GenerationSoftware,Altium Limited,Altium Designer,18.1.7 (191)*
G04*
G04 Layer_Physical_Order=2*
G04 Layer_Color=16711680*
%FSLAX25Y25*%
%MOIN*%
G70*
G01*
G75*
%ADD14C,0.01000*%
%ADD45R,0.05906X0.05906*%
%ADD46C,0.05906*%
%ADD47C,0.05000*%
%ADD48C,0.02756*%
%ADD49C,0.01968*%
G36*
X120419Y113971D02*
X121915Y113570D01*
X123345Y112978D01*
X124686Y112204D01*
X125915Y111261D01*
X127009Y110167D01*
X127952Y108938D01*
X128726Y107597D01*
X129318Y106167D01*
X129719Y104671D01*
X129921Y103136D01*
Y102362D01*
Y11811D01*
Y11037D01*
X129719Y9502D01*
X129318Y8006D01*
X128726Y6576D01*
X127952Y5235D01*
X127009Y4007D01*
X125915Y2912D01*
X124686Y1969D01*
X123345Y1195D01*
X121915Y603D01*
X120419Y202D01*
X118884Y0D01*
X11214D01*
X9654Y205D01*
X8134Y612D01*
X6681Y1214D01*
X5319Y2001D01*
X4071Y2959D01*
X2959Y4071D01*
X2001Y5319D01*
X1214Y6681D01*
X612Y8134D01*
X205Y9654D01*
X0Y11214D01*
Y12000D01*
Y101378D01*
Y102217D01*
X219Y103879D01*
X653Y105500D01*
X1295Y107049D01*
X2134Y108502D01*
X3155Y109833D01*
X4341Y111019D01*
X5671Y112040D01*
X7124Y112878D01*
X8674Y113520D01*
X10294Y113954D01*
X11957Y114173D01*
X118884D01*
X120419Y113971D01*
D02*
G37*
%LPC*%
G36*
X12016Y105921D02*
Y102500D01*
X15437D01*
X15367Y103032D01*
X14968Y103993D01*
X14335Y104819D01*
X13509Y105453D01*
X12548Y105851D01*
X12016Y105921D01*
D02*
G37*
G36*
X11016D02*
X10484Y105851D01*
X9522Y105453D01*
X8697Y104819D01*
X8063Y103993D01*
X7665Y103032D01*
X7595Y102500D01*
X11016D01*
Y105921D01*
D02*
G37*
G36*
X123468Y106453D02*
X115563D01*
Y98547D01*
X123468D01*
Y106453D01*
D02*
G37*
G36*
X15437Y101500D02*
X12016D01*
Y98079D01*
X12548Y98149D01*
X13509Y98547D01*
X14335Y99181D01*
X14968Y100007D01*
X15367Y100968D01*
X15437Y101500D01*
D02*
G37*
G36*
X11016D02*
X7595D01*
X7665Y100968D01*
X8063Y100007D01*
X8697Y99181D01*
X9522Y98547D01*
X10484Y98149D01*
X11016Y98079D01*
Y101500D01*
D02*
G37*
G36*
X119516Y96487D02*
X118484Y96351D01*
X117522Y95953D01*
X116697Y95319D01*
X116063Y94493D01*
X115665Y93532D01*
X115529Y92500D01*
X115665Y91468D01*
X115857Y91004D01*
X106202Y81349D01*
X105870Y80853D01*
X105754Y80268D01*
Y37291D01*
X105569Y37167D01*
X105043Y36380D01*
X104859Y35453D01*
X105043Y34525D01*
X105569Y33738D01*
X106356Y33213D01*
X107283Y33028D01*
X108211Y33213D01*
X108998Y33738D01*
X109523Y34525D01*
X109708Y35453D01*
X109523Y36380D01*
X108998Y37167D01*
X108813Y37291D01*
Y79634D01*
X118020Y88841D01*
X118484Y88649D01*
X119516Y88513D01*
X120548Y88649D01*
X121509Y89047D01*
X122335Y89681D01*
X122968Y90507D01*
X123367Y91468D01*
X123503Y92500D01*
X123367Y93532D01*
X122968Y94493D01*
X122335Y95319D01*
X121509Y95953D01*
X120548Y96351D01*
X119516Y96487D01*
D02*
G37*
G36*
X11516Y95987D02*
X10484Y95851D01*
X9522Y95453D01*
X8697Y94819D01*
X8063Y93993D01*
X7665Y93032D01*
X7529Y92000D01*
X7665Y90968D01*
X8063Y90007D01*
X8697Y89181D01*
X9522Y88547D01*
X10484Y88149D01*
X11516Y88013D01*
X12548Y88149D01*
X13509Y88547D01*
X14335Y89181D01*
X14968Y90007D01*
X15367Y90968D01*
X15503Y92000D01*
X15367Y93032D01*
X14968Y93993D01*
X14335Y94819D01*
X13509Y95453D01*
X12548Y95851D01*
X11516Y95987D01*
D02*
G37*
G36*
X102380Y87644D02*
Y85819D01*
X104206D01*
X104120Y86247D01*
X103595Y87034D01*
X102808Y87559D01*
X102380Y87644D01*
D02*
G37*
G36*
X101380D02*
X100953Y87559D01*
X100166Y87034D01*
X99641Y86247D01*
X99555Y85819D01*
X101380D01*
Y87644D01*
D02*
G37*
G36*
X104206Y84819D02*
X102380D01*
Y82994D01*
X102808Y83079D01*
X103595Y83605D01*
X104120Y84391D01*
X104206Y84819D01*
D02*
G37*
G36*
X101380D02*
X99555D01*
X99641Y84391D01*
X100166Y83605D01*
X100953Y83079D01*
X101380Y82994D01*
Y84819D01*
D02*
G37*
G36*
X119516Y86487D02*
X118484Y86351D01*
X117522Y85953D01*
X116697Y85319D01*
X116063Y84493D01*
X115665Y83532D01*
X115529Y82500D01*
X115665Y81468D01*
X116063Y80507D01*
X116697Y79681D01*
X117522Y79047D01*
X118484Y78649D01*
X119516Y78513D01*
X120548Y78649D01*
X121509Y79047D01*
X122335Y79681D01*
X122968Y80507D01*
X123367Y81468D01*
X123503Y82500D01*
X123367Y83532D01*
X122968Y84493D01*
X122335Y85319D01*
X121509Y85953D01*
X120548Y86351D01*
X119516Y86487D01*
D02*
G37*
G36*
X11516Y85987D02*
X10484Y85851D01*
X9522Y85453D01*
X8697Y84819D01*
X8063Y83993D01*
X7665Y83032D01*
X7529Y82000D01*
X7665Y80968D01*
X8063Y80007D01*
X8697Y79181D01*
X9522Y78547D01*
X10484Y78149D01*
X11516Y78013D01*
X12548Y78149D01*
X13509Y78547D01*
X14335Y79181D01*
X14968Y80007D01*
X15367Y80968D01*
X15503Y82000D01*
X15367Y83032D01*
X14968Y83993D01*
X14335Y84819D01*
X13509Y85453D01*
X12548Y85851D01*
X11516Y85987D01*
D02*
G37*
G36*
X12016Y75921D02*
Y72500D01*
X15437D01*
X15367Y73032D01*
X14968Y73993D01*
X14335Y74819D01*
X13509Y75453D01*
X12548Y75851D01*
X12016Y75921D01*
D02*
G37*
G36*
X11016D02*
X10484Y75851D01*
X9522Y75453D01*
X8697Y74819D01*
X8063Y73993D01*
X7665Y73032D01*
X7595Y72500D01*
X11016D01*
Y75921D01*
D02*
G37*
G36*
X70520Y71052D02*
Y69227D01*
X72345D01*
X72260Y69655D01*
X71734Y70442D01*
X70948Y70967D01*
X70520Y71052D01*
D02*
G37*
G36*
X69520D02*
X69092Y70967D01*
X68306Y70442D01*
X67780Y69655D01*
X67695Y69227D01*
X69520D01*
Y71052D01*
D02*
G37*
G36*
X119516Y76487D02*
X118484Y76351D01*
X117522Y75953D01*
X116697Y75319D01*
X116063Y74493D01*
X115665Y73532D01*
X115529Y72500D01*
X115665Y71468D01*
X116063Y70507D01*
X116697Y69681D01*
X117522Y69047D01*
X118484Y68649D01*
X119516Y68513D01*
X120548Y68649D01*
X121509Y69047D01*
X122335Y69681D01*
X122968Y70507D01*
X123367Y71468D01*
X123503Y72500D01*
X123367Y73532D01*
X122968Y74493D01*
X122335Y75319D01*
X121509Y75953D01*
X120548Y76351D01*
X119516Y76487D01*
D02*
G37*
G36*
X15437Y71500D02*
X12016D01*
Y68079D01*
X12548Y68149D01*
X13509Y68547D01*
X14335Y69181D01*
X14968Y70007D01*
X15367Y70968D01*
X15437Y71500D01*
D02*
G37*
G36*
X11016D02*
X7595D01*
X7665Y70968D01*
X8063Y70007D01*
X8697Y69181D01*
X9522Y68547D01*
X10484Y68149D01*
X11016Y68079D01*
Y71500D01*
D02*
G37*
G36*
X60539Y68853D02*
Y67429D01*
X61963D01*
X61909Y67703D01*
X61470Y68360D01*
X60814Y68798D01*
X60539Y68853D01*
D02*
G37*
G36*
X55602D02*
X55328Y68798D01*
X54672Y68360D01*
X54233Y67703D01*
X54179Y67429D01*
X55602D01*
Y68853D01*
D02*
G37*
G36*
X79442Y68480D02*
Y66655D01*
X81267D01*
X81182Y67083D01*
X80657Y67869D01*
X79870Y68395D01*
X79442Y68480D01*
D02*
G37*
G36*
X78442D02*
X78014Y68395D01*
X77228Y67869D01*
X76702Y67083D01*
X76617Y66655D01*
X78442D01*
Y68480D01*
D02*
G37*
G36*
X72345Y68227D02*
X70520D01*
Y66402D01*
X70948Y66487D01*
X71734Y67013D01*
X72260Y67799D01*
X72345Y68227D01*
D02*
G37*
G36*
X69520D02*
X67695D01*
X67780Y67799D01*
X68306Y67013D01*
X69092Y66487D01*
X69520Y66402D01*
Y68227D01*
D02*
G37*
G36*
X81267Y65655D02*
X79442D01*
Y63830D01*
X79870Y63915D01*
X80657Y64441D01*
X81182Y65227D01*
X81267Y65655D01*
D02*
G37*
G36*
X78442D02*
X76617D01*
X76702Y65227D01*
X77228Y64441D01*
X78014Y63915D01*
X78442Y63830D01*
Y65655D01*
D02*
G37*
G36*
X120016Y66421D02*
Y63000D01*
X123437D01*
X123367Y63532D01*
X122968Y64493D01*
X122335Y65319D01*
X121509Y65953D01*
X120548Y66351D01*
X120016Y66421D01*
D02*
G37*
G36*
X119016D02*
X118484Y66351D01*
X117522Y65953D01*
X116697Y65319D01*
X116063Y64493D01*
X115665Y63532D01*
X115595Y63000D01*
X119016D01*
Y66421D01*
D02*
G37*
G36*
X29528Y80302D02*
X28614Y80182D01*
X27762Y79829D01*
X27031Y79268D01*
X26470Y78537D01*
X26118Y77685D01*
X25997Y76772D01*
X26118Y75858D01*
X26470Y75007D01*
X27031Y74275D01*
X27762Y73714D01*
X27998Y73617D01*
Y73532D01*
X28115Y72947D01*
X28446Y72450D01*
X28772Y72124D01*
Y65163D01*
X28537Y65065D01*
X27806Y64504D01*
X27244Y63773D01*
X26892Y62922D01*
X26772Y62008D01*
X26892Y61094D01*
X27244Y60243D01*
X27341Y60116D01*
X27121Y59637D01*
X26762Y59601D01*
X26360Y60003D01*
X25864Y60334D01*
X25279Y60451D01*
X18437D01*
X17852Y60334D01*
X17356Y60003D01*
X13012Y55659D01*
X12548Y55851D01*
X11516Y55987D01*
X10484Y55851D01*
X9522Y55453D01*
X8697Y54819D01*
X8063Y53993D01*
X7665Y53032D01*
X7529Y52000D01*
X7665Y50968D01*
X8063Y50007D01*
X8697Y49181D01*
X9522Y48547D01*
X10484Y48149D01*
X11516Y48013D01*
X12548Y48149D01*
X13509Y48547D01*
X14335Y49181D01*
X14968Y50007D01*
X15367Y50968D01*
X15503Y52000D01*
X15367Y53032D01*
X15175Y53496D01*
X19071Y57392D01*
X20541D01*
X20762Y56943D01*
X20565Y56686D01*
X20212Y55835D01*
X20092Y54921D01*
X20212Y54008D01*
X20565Y53156D01*
X21126Y52425D01*
X21857Y51864D01*
X22134Y51749D01*
X22209Y51370D01*
X22541Y50874D01*
X31902Y41513D01*
X32398Y41181D01*
X32983Y41065D01*
X48341D01*
X48439Y40829D01*
X49000Y40098D01*
X49731Y39537D01*
X50582Y39184D01*
X51496Y39064D01*
X52410Y39184D01*
X53261Y39537D01*
X53992Y40098D01*
X54553Y40829D01*
X54906Y41680D01*
X55026Y42594D01*
X54906Y43508D01*
X54553Y44359D01*
X53992Y45090D01*
X53652Y45352D01*
X53926Y45768D01*
X54512Y45652D01*
X90240D01*
X90825Y45768D01*
X91321Y46100D01*
X91920Y46699D01*
X100524D01*
X100648Y46514D01*
X101434Y45988D01*
X102362Y45804D01*
X103290Y45988D01*
X104077Y46514D01*
X104602Y47300D01*
X104787Y48228D01*
X104602Y49156D01*
X104077Y49943D01*
X103290Y50468D01*
X102362Y50653D01*
X101434Y50468D01*
X100648Y49943D01*
X100524Y49758D01*
X91287D01*
X91063Y49713D01*
X90763Y50163D01*
X90823Y50253D01*
X90908Y50681D01*
X86258D01*
X86343Y50253D01*
X86868Y49467D01*
X87252Y49211D01*
X87100Y48711D01*
X60353D01*
X60303Y49211D01*
X60814Y49312D01*
X61470Y49751D01*
X61909Y50407D01*
X61963Y50681D01*
X60039D01*
Y51681D01*
X61963D01*
X61909Y51955D01*
X61470Y52612D01*
X61115Y52849D01*
Y53450D01*
X61470Y53688D01*
X61909Y54344D01*
X61963Y54618D01*
X60039D01*
Y55618D01*
X61963D01*
X61909Y55892D01*
X61470Y56549D01*
X61115Y56786D01*
Y57387D01*
X61470Y57625D01*
X61909Y58281D01*
X61963Y58555D01*
X60039D01*
Y59555D01*
X61963D01*
X61909Y59829D01*
X61470Y60486D01*
X61115Y60723D01*
Y61324D01*
X61470Y61562D01*
X61909Y62218D01*
X61963Y62492D01*
X60039D01*
Y63492D01*
X61963D01*
X61909Y63766D01*
X61470Y64423D01*
X61115Y64660D01*
Y65261D01*
X61470Y65499D01*
X61909Y66155D01*
X61963Y66429D01*
X60039D01*
Y66929D01*
X59539D01*
Y68853D01*
X59265Y68798D01*
X58609Y68360D01*
X58372Y68005D01*
X57770D01*
X57533Y68360D01*
X56877Y68798D01*
X56602Y68853D01*
Y66929D01*
X56102D01*
Y66429D01*
X54179D01*
X54233Y66155D01*
X54672Y65499D01*
X55027Y65261D01*
Y64660D01*
X54672Y64423D01*
X54233Y63766D01*
X54179Y63492D01*
X56102D01*
Y62492D01*
X54179D01*
X54233Y62218D01*
X54672Y61562D01*
X55027Y61324D01*
Y60723D01*
X54672Y60486D01*
X54233Y59829D01*
X54179Y59555D01*
X56102D01*
Y58555D01*
X54179D01*
X54233Y58281D01*
X54672Y57625D01*
X55027Y57387D01*
Y56786D01*
X54672Y56549D01*
X54233Y55892D01*
X54179Y55618D01*
X56102D01*
Y54618D01*
X54179D01*
X54233Y54344D01*
X54672Y53688D01*
X55027Y53450D01*
Y52849D01*
X54672Y52612D01*
X54233Y51955D01*
X54179Y51681D01*
X56102D01*
Y50681D01*
X54179D01*
X54233Y50407D01*
X54389Y50174D01*
X54000Y49855D01*
X46672Y57184D01*
X46176Y57515D01*
X45591Y57632D01*
X45145D01*
X45021Y57817D01*
X44235Y58342D01*
X43307Y58527D01*
X43089Y58483D01*
X42483Y59089D01*
X41987Y59421D01*
X41401Y59537D01*
X33383D01*
X33162Y59986D01*
X33359Y60243D01*
X33712Y61094D01*
X33832Y62008D01*
X33712Y62922D01*
X33359Y63773D01*
X32798Y64504D01*
X32067Y65065D01*
X31831Y65163D01*
Y72758D01*
X31715Y73343D01*
X31408Y73803D01*
X32024Y74275D01*
X32585Y75007D01*
X32937Y75858D01*
X33058Y76772D01*
X32937Y77685D01*
X32585Y78537D01*
X32024Y79268D01*
X31293Y79829D01*
X30441Y80182D01*
X29528Y80302D01*
D02*
G37*
G36*
X123437Y62000D02*
X120016D01*
Y58579D01*
X120548Y58649D01*
X121509Y59047D01*
X122335Y59681D01*
X122968Y60507D01*
X123367Y61468D01*
X123437Y62000D01*
D02*
G37*
G36*
X119016D02*
X115595D01*
X115665Y61468D01*
X116063Y60507D01*
X116697Y59681D01*
X117522Y59047D01*
X118484Y58649D01*
X119016Y58579D01*
Y62000D01*
D02*
G37*
G36*
X11516Y65987D02*
X10484Y65851D01*
X9522Y65453D01*
X8697Y64819D01*
X8063Y63993D01*
X7665Y63032D01*
X7529Y62000D01*
X7665Y60968D01*
X8063Y60007D01*
X8697Y59181D01*
X9522Y58547D01*
X10484Y58149D01*
X11516Y58013D01*
X12548Y58149D01*
X13509Y58547D01*
X14335Y59181D01*
X14968Y60007D01*
X15367Y60968D01*
X15503Y62000D01*
X15367Y63032D01*
X14968Y63993D01*
X14335Y64819D01*
X13509Y65453D01*
X12548Y65851D01*
X11516Y65987D01*
D02*
G37*
G36*
X89083Y53506D02*
Y51681D01*
X90908D01*
X90823Y52109D01*
X90297Y52895D01*
X89511Y53421D01*
X89083Y53506D01*
D02*
G37*
G36*
X88083D02*
X87655Y53421D01*
X86868Y52895D01*
X86343Y52109D01*
X86258Y51681D01*
X88083D01*
Y53506D01*
D02*
G37*
G36*
X119516Y56487D02*
X118484Y56351D01*
X117522Y55953D01*
X116697Y55319D01*
X116063Y54493D01*
X115665Y53532D01*
X115529Y52500D01*
X115665Y51468D01*
X116063Y50507D01*
X116697Y49681D01*
X117522Y49047D01*
X118484Y48649D01*
X119516Y48513D01*
X120548Y48649D01*
X121509Y49047D01*
X122335Y49681D01*
X122968Y50507D01*
X123367Y51468D01*
X123503Y52500D01*
X123367Y53532D01*
X122968Y54493D01*
X122335Y55319D01*
X121509Y55953D01*
X120548Y56351D01*
X119516Y56487D01*
D02*
G37*
G36*
X73579Y41695D02*
Y39870D01*
X75404D01*
X75319Y40298D01*
X74793Y41085D01*
X74007Y41610D01*
X73579Y41695D01*
D02*
G37*
G36*
X72579D02*
X72151Y41610D01*
X71364Y41085D01*
X70839Y40298D01*
X70754Y39870D01*
X72579D01*
Y41695D01*
D02*
G37*
G36*
X119516Y46487D02*
X118484Y46351D01*
X117522Y45953D01*
X116697Y45319D01*
X116063Y44493D01*
X115665Y43532D01*
X115529Y42500D01*
X115665Y41468D01*
X116063Y40507D01*
X116697Y39681D01*
X117522Y39047D01*
X118484Y38649D01*
X119516Y38513D01*
X120548Y38649D01*
X121509Y39047D01*
X122335Y39681D01*
X122968Y40507D01*
X123367Y41468D01*
X123503Y42500D01*
X123367Y43532D01*
X122968Y44493D01*
X122335Y45319D01*
X121509Y45953D01*
X120548Y46351D01*
X119516Y46487D01*
D02*
G37*
G36*
X11516Y45987D02*
X10484Y45851D01*
X9522Y45453D01*
X8697Y44819D01*
X8063Y43993D01*
X7665Y43032D01*
X7529Y42000D01*
X7665Y40968D01*
X8063Y40007D01*
X8697Y39181D01*
X9522Y38547D01*
X10484Y38149D01*
X11516Y38013D01*
X12548Y38149D01*
X13509Y38547D01*
X14335Y39181D01*
X14968Y40007D01*
X15367Y40968D01*
X15503Y42000D01*
X15367Y43032D01*
X14968Y43993D01*
X14335Y44819D01*
X13509Y45453D01*
X12548Y45851D01*
X11516Y45987D01*
D02*
G37*
G36*
X75404Y38870D02*
X73579D01*
Y37045D01*
X74007Y37130D01*
X74793Y37656D01*
X75319Y38442D01*
X75404Y38870D01*
D02*
G37*
G36*
X72579D02*
X70754D01*
X70839Y38442D01*
X71364Y37656D01*
X72151Y37130D01*
X72579Y37045D01*
Y38870D01*
D02*
G37*
G36*
X119516Y36487D02*
X118484Y36351D01*
X117522Y35953D01*
X116697Y35319D01*
X116063Y34493D01*
X115665Y33532D01*
X115529Y32500D01*
X115665Y31468D01*
X116063Y30507D01*
X116697Y29681D01*
X117522Y29047D01*
X118484Y28649D01*
X119516Y28513D01*
X120548Y28649D01*
X121509Y29047D01*
X122335Y29681D01*
X122968Y30507D01*
X123367Y31468D01*
X123503Y32500D01*
X123367Y33532D01*
X122968Y34493D01*
X122335Y35319D01*
X121509Y35953D01*
X120548Y36351D01*
X119516Y36487D01*
D02*
G37*
G36*
X11516Y35987D02*
X10484Y35851D01*
X9522Y35453D01*
X8697Y34819D01*
X8063Y33993D01*
X7665Y33032D01*
X7529Y32000D01*
X7665Y30968D01*
X8063Y30007D01*
X8697Y29181D01*
X9522Y28547D01*
X10484Y28149D01*
X11516Y28013D01*
X12548Y28149D01*
X13509Y28547D01*
X14335Y29181D01*
X14968Y30007D01*
X15367Y30968D01*
X15503Y32000D01*
X15367Y33032D01*
X14968Y33993D01*
X14335Y34819D01*
X13509Y35453D01*
X12548Y35851D01*
X11516Y35987D01*
D02*
G37*
G36*
X86614Y42998D02*
X86198D01*
X85613Y42881D01*
X85388Y42731D01*
X84702Y42594D01*
X83915Y42069D01*
X83390Y41282D01*
X83205Y40354D01*
X83390Y39426D01*
X83915Y38640D01*
X84100Y38516D01*
Y37102D01*
X71417Y24419D01*
X60383D01*
X60286Y24655D01*
X59725Y25386D01*
X58993Y25947D01*
X58142Y26300D01*
X57228Y26420D01*
X56315Y26300D01*
X55463Y25947D01*
X54732Y25386D01*
X54171Y24655D01*
X53818Y23804D01*
X53698Y22890D01*
X53818Y21976D01*
X54171Y21125D01*
X54732Y20394D01*
X55463Y19833D01*
X56315Y19480D01*
X57228Y19360D01*
X58142Y19480D01*
X58993Y19833D01*
X59725Y20394D01*
X60286Y21125D01*
X60383Y21361D01*
X72051D01*
X72636Y21477D01*
X73132Y21809D01*
X86711Y35388D01*
X87043Y35884D01*
X87159Y36469D01*
Y38516D01*
X87344Y38640D01*
X87870Y39426D01*
X88054Y40354D01*
X87967Y40793D01*
X88027Y40883D01*
X88144Y41468D01*
X88027Y42053D01*
X87696Y42550D01*
X87199Y42881D01*
X86614Y42998D01*
D02*
G37*
G36*
X119516Y26487D02*
X118484Y26351D01*
X117522Y25953D01*
X116697Y25319D01*
X116063Y24493D01*
X115665Y23532D01*
X115529Y22500D01*
X115665Y21468D01*
X116063Y20507D01*
X116697Y19681D01*
X117522Y19047D01*
X118484Y18649D01*
X119516Y18513D01*
X120548Y18649D01*
X121509Y19047D01*
X122335Y19681D01*
X122968Y20507D01*
X123367Y21468D01*
X123503Y22500D01*
X123367Y23532D01*
X122968Y24493D01*
X122335Y25319D01*
X121509Y25953D01*
X120548Y26351D01*
X119516Y26487D01*
D02*
G37*
G36*
X11516Y25987D02*
X10484Y25851D01*
X9522Y25453D01*
X8697Y24819D01*
X8063Y23993D01*
X7665Y23032D01*
X7529Y22000D01*
X7665Y20968D01*
X8063Y20007D01*
X8697Y19181D01*
X9522Y18547D01*
X10484Y18149D01*
X11516Y18013D01*
X12548Y18149D01*
X13509Y18547D01*
X14335Y19181D01*
X14968Y20007D01*
X15367Y20968D01*
X15503Y22000D01*
X15367Y23032D01*
X14968Y23993D01*
X14335Y24819D01*
X13509Y25453D01*
X12548Y25851D01*
X11516Y25987D01*
D02*
G37*
G36*
X119516Y16487D02*
X118484Y16351D01*
X117522Y15953D01*
X116697Y15319D01*
X116063Y14493D01*
X115665Y13532D01*
X115529Y12500D01*
X115665Y11468D01*
X116063Y10507D01*
X116697Y9681D01*
X117522Y9047D01*
X118484Y8649D01*
X119516Y8513D01*
X120548Y8649D01*
X121509Y9047D01*
X122335Y9681D01*
X122968Y10507D01*
X123367Y11468D01*
X123503Y12500D01*
X123367Y13532D01*
X122968Y14493D01*
X122335Y15319D01*
X121509Y15953D01*
X120548Y16351D01*
X119516Y16487D01*
D02*
G37*
G36*
X15469Y15953D02*
X7563D01*
Y8047D01*
X15469D01*
Y15953D01*
D02*
G37*
%LPD*%
G36*
X40883Y56102D02*
X41067Y55174D01*
X41593Y54388D01*
X42379Y53862D01*
X43307Y53678D01*
X44235Y53862D01*
X45021Y54388D01*
X45131Y54399D01*
X53430Y46100D01*
X53141Y45701D01*
X52410Y46004D01*
X51496Y46124D01*
X50582Y46004D01*
X49731Y45652D01*
X49000Y45090D01*
X48439Y44359D01*
X48341Y44124D01*
X33617D01*
X25932Y51808D01*
X25965Y52307D01*
X26118Y52425D01*
X26679Y53156D01*
X27032Y54008D01*
X27152Y54921D01*
X27032Y55835D01*
X26938Y56063D01*
X27215Y56479D01*
X40476D01*
X40883Y56102D01*
D02*
G37*
D14*
X85630Y36469D02*
Y40354D01*
X72051Y22890D02*
X85630Y36469D01*
X57228Y22890D02*
X72051D01*
X86198Y41468D02*
X86614D01*
X23622Y51955D02*
X32983Y42594D01*
X51496D01*
X23622Y51955D02*
Y54921D01*
X11516Y52000D02*
X18437Y58921D01*
X25279D01*
X26192Y58008D02*
X41401D01*
X25279Y58921D02*
X26192Y58008D01*
X43307Y56102D02*
X45591D01*
X41401Y58008D02*
X43307Y56102D01*
X54512Y47181D02*
X90240D01*
X45591Y56102D02*
X54512Y47181D01*
X30302Y62008D02*
Y72758D01*
X29528Y73532D02*
Y76772D01*
Y73532D02*
X30302Y72758D01*
X85630Y40354D02*
Y40484D01*
X107283Y80268D02*
X119516Y92500D01*
X107283Y35453D02*
Y80268D01*
X90240Y47181D02*
X91287Y48228D01*
X102362D01*
D45*
X119516Y102500D02*
D03*
X11516Y12000D02*
D03*
D46*
X119516Y92500D02*
D03*
Y72500D02*
D03*
Y62500D02*
D03*
Y52500D02*
D03*
Y42500D02*
D03*
Y32500D02*
D03*
Y22500D02*
D03*
Y12500D02*
D03*
Y82500D02*
D03*
X11516Y22000D02*
D03*
Y42000D02*
D03*
Y52000D02*
D03*
Y62000D02*
D03*
Y72000D02*
D03*
Y82000D02*
D03*
Y92000D02*
D03*
Y102000D02*
D03*
Y32000D02*
D03*
D47*
X57228Y22890D02*
D03*
X51496Y42594D02*
D03*
X23622Y54921D02*
D03*
X30302Y62008D02*
D03*
X29528Y76772D02*
D03*
D48*
X70020Y68727D02*
D03*
X101880Y85319D02*
D03*
X43307Y56102D02*
D03*
X85630Y40354D02*
D03*
X107283Y35453D02*
D03*
X102362Y48228D02*
D03*
X78942Y66155D02*
D03*
X88583Y51181D02*
D03*
X73079Y39370D02*
D03*
D49*
X60039Y51181D02*
D03*
X56102D02*
D03*
X60039Y55118D02*
D03*
X56102D02*
D03*
X60039Y59055D02*
D03*
X56102D02*
D03*
X60039Y62992D02*
D03*
X56102D02*
D03*
X60039Y66929D02*
D03*
X56102D02*
D03*
M02*
