G04*
G04 #@! TF.GenerationSoftware,Altium Limited,Altium Designer,18.1.7 (191)*
G04*
G04 Layer_Color=16711935*
%FSLAX25Y25*%
%MOIN*%
G70*
G01*
G75*
%ADD10C,0.00394*%
D10*
X56496Y66535D02*
G03*
X56496Y66535I-1969J0D01*
G01*
X50984Y48031D02*
X65158D01*
X50984Y70079D02*
X65158D01*
Y48031D02*
Y70079D01*
X50984Y48031D02*
Y70079D01*
X39067Y53937D02*
Y56299D01*
X34736Y53937D02*
Y56299D01*
Y53937D02*
X39067D01*
X34736Y56299D02*
X39067D01*
X110335Y44420D02*
Y48554D01*
X108169Y44420D02*
Y48554D01*
X110335D01*
X108169Y44420D02*
X110335D01*
X91437Y67339D02*
X93602D01*
X91437Y71472D02*
X93602D01*
X91437Y67339D02*
Y71472D01*
X93602Y67339D02*
Y71472D01*
X75689Y69885D02*
Y72051D01*
X79823Y69885D02*
Y72051D01*
X75689D02*
X79823D01*
X75689Y69885D02*
X79823D01*
X71996Y46067D02*
X74161D01*
X71996Y41933D02*
X74161D01*
Y46067D01*
X71996Y41933D02*
Y46067D01*
X60283Y41717D02*
Y43883D01*
X56150Y41717D02*
Y43883D01*
Y41717D02*
X60283D01*
X56150Y43883D02*
X60283D01*
X97835Y48386D02*
Y59882D01*
X102953Y48386D02*
Y59882D01*
X97835D02*
X102953D01*
X97835Y48386D02*
X102953D01*
X89173Y38504D02*
X99803D01*
X89173Y32401D02*
Y38504D01*
X99803Y32401D02*
Y38504D01*
X89173Y32401D02*
X99803D01*
X83260Y67437D02*
Y71571D01*
X85425Y67437D02*
Y71571D01*
X83260Y67437D02*
X85425D01*
X83260Y71571D02*
X85425D01*
X44728Y26580D02*
Y37210D01*
X58114Y26580D02*
Y37210D01*
X44728D02*
X58114D01*
X44728Y26580D02*
X58114D01*
X33858Y61055D02*
X40945D01*
X33858Y74441D02*
X40945D01*
X33858Y61055D02*
Y74441D01*
X40945Y61055D02*
Y74441D01*
X72638Y47638D02*
Y54724D01*
X86024Y47638D02*
Y54724D01*
X72638D02*
X86024D01*
X72638Y47638D02*
X86024D01*
X88681Y45374D02*
X92815D01*
X88681Y43209D02*
X92815D01*
X88681D02*
Y45374D01*
X92815Y43209D02*
Y45374D01*
M02*
